<?xml version="1.0" encoding="UTF-8" standalone="no"?>
<svg
   xmlns:dc="http://purl.org/dc/elements/1.1/"
   xmlns:cc="http://creativecommons.org/ns#"
   xmlns:rdf="http://www.w3.org/1999/02/22-rdf-syntax-ns#"
   xmlns:svg="http://www.w3.org/2000/svg"
   xmlns="http://www.w3.org/2000/svg"
   width="207.85216mm"
   height="35.510242mm"
   viewBox="0 0 736.48402 125.8237"
   id="svg6003"
   version="1.1">
  <defs
     id="defs6005" />
  <metadata
     id="metadata6008">
    <rdf:RDF>
      <cc:Work
         rdf:about="">
        <dc:format>image/svg+xml</dc:format>
        <dc:type
           rdf:resource="http://purl.org/dc/dcmitype/StillImage" />
        <dc:title></dc:title>
      </cc:Work>
    </rdf:RDF>
  </metadata>
  <g
     id="g4148">
    <g
       transform="translate(-18.48233,-74.590965)"
       id="layer1">
      <flowRoot
         transform="translate(-409.23356,-607.40238)"
         style="font-style:normal;font-weight:normal;font-size:40px;line-height:125%;font-family:sans-serif;text-align:justify;letter-spacing:0px;word-spacing:0px;text-anchor:start;fill:#000000;fill-opacity:1;stroke:none;stroke-width:1px;stroke-linecap:butt;stroke-linejoin:miter;stroke-opacity:1"
         id="flowRoot5026-2-0-2-7-6"
         xml:space="preserve"><flowRegion
           id="flowRegion5028-1-7-4-1-6"><rect
             style="text-align:justify;text-anchor:start"
             y="713"
             x="497"
             height="234"
             width="943"
             id="rect5030-5-1-2-8-2" /></flowRegion><flowPara
           style="font-style:normal;font-variant:normal;font-weight:normal;font-stretch:normal;font-size:20px;font-family:'Open Sans';-inkscape-font-specification:'Open Sans';text-align:justify;text-anchor:start"
           id="flowPara5032-8-7-5-7-9">Introducing</flowPara><flowPara
           style="font-style:normal;font-variant:normal;font-weight:bold;font-stretch:normal;font-size:40px;font-family:Lato;-inkscape-font-specification:'Lato Bold';text-align:justify;text-anchor:start"
           id="flowPara5034-4-6-5-4-5">Predictive Cash              Forecasting</flowPara><flowPara
           id="flowPara8775-6-8-5"
           style="font-style:normal;font-variant:normal;font-weight:300;font-stretch:normal;font-size:20px;font-family:'Open Sans';-inkscape-font-specification:'Open Sans Light';text-align:justify;text-anchor:start">.</flowPara><flowPara
           style="font-style:normal;font-variant:normal;font-weight:300;font-stretch:normal;font-size:20px;font-family:'Open Sans';-inkscape-font-specification:'Open Sans Light';text-align:justify;text-anchor:start"
           id="flowPara5036-5-6-5-9-4" /><flowPara
           style="font-style:normal;font-variant:normal;font-weight:300;font-stretch:normal;font-size:20px;font-family:'Open Sans';-inkscape-font-specification:'Open Sans Light';text-align:justify;text-anchor:start"
           id="flowPara5038-2-7-50-0-9" /><flowPara
           style="font-style:normal;font-variant:normal;font-weight:normal;font-stretch:normal;font-size:20px;font-family:'Open Sans';-inkscape-font-specification:'Open Sans';text-align:justify;text-anchor:start"
           id="flowPara5040-2-7-7-5-8" /><flowPara
           style="font-style:normal;font-variant:normal;font-weight:normal;font-stretch:normal;font-size:20px;font-family:'Open Sans';-inkscape-font-specification:'Open Sans';text-align:justify;text-anchor:start"
           id="flowPara5042-9-3-8-3-3" /><flowPara
           style="font-style:normal;font-variant:normal;font-weight:normal;font-stretch:normal;font-size:20px;font-family:'Open Sans';-inkscape-font-specification:'Open Sans';text-align:justify;text-anchor:start"
           id="flowPara5044-9-4-6-1-4" /></flowRoot>      <rect
         ry="6.6350374"
         y="118.60391"
         x="375.21707"
         height="44.836029"
         width="81.465034"
         id="rect5229-8-3-2"
         style="fill:#54ff00;fill-opacity:0.29803922;stroke:none;stroke-width:3;stroke-miterlimit:4;stroke-dasharray:none;stroke-dashoffset:0;stroke-opacity:1" />
      <path
         d="m 439.80749,172.73304 c -6.64437,-0.0371 -7.09287,0.063 -12.94046,0.12835 -1.07927,0 -2.0405,-0.15177 -2.88369,-0.45532 -0.80945,-0.30355 -1.50086,-0.70827 -2.07423,-1.21418 -0.57337,-0.53964 -1.01182,-1.14673 -1.31537,-1.82128 -0.30355,-0.67455 -0.45532,-1.39968 -0.45532,-2.17541 l 0,-20.8941 c 0,-0.74201 -0.0675,-1.45028 -0.20236,-2.12483 -0.10118,-0.67455 -0.32041,-1.26477 -0.65768,-1.77068 -0.30355,-0.50591 -0.742,-0.89378 -1.31537,-1.1636 -0.53964,-0.30355 -1.23105,-0.45532 -2.07423,-0.45532 -1.65264,0 -2.81623,0.52278 -3.49078,1.56833 -0.64082,1.04555 -0.9781,2.4115 -1.01183,4.09787 l 0,0.91064 4.40143,0 0,5.16028 -4.40143,0 0,19.93288 -6.7792,0 0,-19.93288 -3.49078,0 0,-5.16028 3.49078,0 0,-2.22601 c 0,-3.27155 0.9781,-5.76738 2.93429,-7.48747 1.95619,-1.75383 4.67124,-2.63074 8.14515,-2.63074 3.84492,0 6.67802,0.91064 8.4993,2.73192 1.82127,1.82128 2.73191,4.21592 2.73191,7.18393 l 0,18.87046 c 0,0.33727 0.0337,0.69141 0.10119,1.06241 0.10118,0.33727 0.25295,0.65768 0.45532,0.96123 0.20236,0.26982 0.45531,0.50591 0.75886,0.70827 0.30355,0.16864 0.67455,0.25296 1.113,0.25296 0.30355,0 0,0 1.65319,0.0216 0.33727,-0.0675 -0.0511,-0.25769 0.21868,-0.32514 l 0.75887,-0.25295 0.30354,-0.10119 z"
         style="font-style:normal;font-variant:normal;font-weight:bold;font-stretch:normal;font-size:medium;line-height:125%;font-family:Raleway;-inkscape-font-specification:'Raleway Bold';letter-spacing:0px;word-spacing:0px;fill:#000000;fill-opacity:1;stroke:none;stroke-width:1px;stroke-linecap:butt;stroke-linejoin:miter;stroke-opacity:1"
         id="path6591" />
      <path
         d="m 442.43146,172.81016 c -2.15855,0 -10.45937,0.0164 -12.44732,-0.0113 -1.87313,-0.0261 3.44212,-2.83864 2.22791,-4.08655 -1.18045,-1.28164 -2.09109,-2.74878 -2.73191,-4.40142 -0.64082,-1.65264 -0.96123,-3.3896 -0.96123,-5.21088 0,-1.855 0.32041,-3.60882 0.96123,-5.26147 0.64082,-1.65264 1.55146,-3.10291 2.73191,-4.35082 1.21419,-1.28164 2.68133,-2.29346 4.40142,-3.03547 1.7201,-0.742 3.65942,-1.113 5.81797,-1.113 2.15855,0 4.08101,0.371 5.76738,1.113 1.7201,0.74201 3.17038,1.75383 4.35083,3.03547 1.21419,1.24791 2.14169,2.69818 2.78251,4.35082 0.64082,1.65265 0.96123,3.40647 0.96123,5.26147 0,1.82128 -0.32041,3.55824 -0.96123,5.21088 -0.64082,1.65264 -1.55146,3.11978 -2.73192,4.40142 -1.18045,1.24791 -2.63073,2.24287 -4.35083,2.98487 -1.72009,0.74201 -3.65942,1.11301 -5.81797,1.11301 z m -6.93097,-13.71018 c 0,1.18046 0.16864,2.25974 0.50591,3.23783 0.371,0.94437 0.86005,1.77069 1.46714,2.47896 0.64082,0.70827 1.38282,1.26478 2.22601,1.66951 0.84318,0.371 1.75382,0.5565 2.73191,0.5565 0.97809,0 1.88873,-0.1855 2.73192,-0.5565 0.84319,-0.40473 1.56833,-0.96124 2.17542,-1.66951 0.64082,-0.70827 1.12987,-1.55146 1.46714,-2.52955 0.371,-0.97809 0.5565,-2.05737 0.5565,-3.23783 0,-1.14673 -0.1855,-2.20914 -0.5565,-3.18723 -0.33727,-0.97809 -0.82632,-1.82128 -1.46714,-2.52956 -0.60709,-0.70827 -1.33223,-1.24791 -2.17542,-1.61891 -0.84319,-0.40473 -1.75383,-0.60709 -2.73192,-0.60709 -0.97809,0 -1.88873,0.20236 -2.73191,0.60709 -0.84319,0.40473 -1.58519,0.96123 -2.22601,1.66951 -0.60709,0.70827 -1.09614,1.55146 -1.46714,2.52955 -0.33727,0.97809 -0.50591,2.0405 -0.50591,3.18723 z"
         style="font-style:normal;font-variant:normal;font-weight:bold;font-stretch:normal;font-size:medium;line-height:125%;font-family:Raleway;-inkscape-font-specification:'Raleway Bold';letter-spacing:0px;word-spacing:0px;fill:#000000;fill-opacity:1;stroke:none;stroke-width:1px;stroke-linecap:butt;stroke-linejoin:miter;stroke-opacity:1"
         id="path6593" />
    </g>
  </g>
</svg>
