<?xml version="1.0" encoding="UTF-8" standalone="no"?>
<svg
   xmlns:dc="http://purl.org/dc/elements/1.1/"
   xmlns:cc="http://creativecommons.org/ns#"
   xmlns:rdf="http://www.w3.org/1999/02/22-rdf-syntax-ns#"
   xmlns:svg="http://www.w3.org/2000/svg"
   xmlns="http://www.w3.org/2000/svg"
   width="207.85216mm"
   height="35.510242mm"
   viewBox="0 0 736.48402 125.8237"
   id="svg6003"
   version="1.1">
  <defs
     id="defs6005" />
  <metadata
     id="metadata6008">
    <rdf:RDF>
      <cc:Work
         rdf:about="">
        <dc:format>image/svg+xml</dc:format>
        <dc:type
           rdf:resource="http://purl.org/dc/dcmitype/StillImage" />
        <dc:title></dc:title>
      </cc:Work>
    </rdf:RDF>
  </metadata>
  <g
     id="g4148">
    <g
       transform="translate(-18.48233,-74.590965)"
       id="layer1">
      <g
         id="flowRoot5026-2-0-2-7-6"
         style="font-style:normal;font-weight:normal;font-size:40px;line-height:125%;font-family:sans-serif;text-align:justify;letter-spacing:0px;word-spacing:0px;text-anchor:start;fill:#000000;fill-opacity:1;stroke:none;stroke-width:1px;stroke-linecap:butt;stroke-linejoin:miter;stroke-opacity:1"
         transform="translate(-409.23356,-607.40238)">
        <path
           id="path4166"
           style="font-style:normal;font-variant:normal;font-weight:normal;font-stretch:normal;font-size:20px;font-family:'Open Sans';-inkscape-font-specification:'Open Sans';text-align:justify;text-anchor:start"
           d="m 498.96289,732.62173 0,-14.27735 1.66016,0 0,14.27735 -1.66016,0 z" />
        <path
           id="path4168"
           style="font-style:normal;font-variant:normal;font-weight:normal;font-stretch:normal;font-size:20px;font-family:'Open Sans';-inkscape-font-specification:'Open Sans';text-align:justify;text-anchor:start"
           d="m 511.62891,732.62173 0,-6.92383 q 0,-1.30859 -0.59571,-1.95312 -0.5957,-0.64454 -1.86523,-0.64454 -1.67969,0 -2.46094,0.90821 -0.78125,0.9082 -0.78125,2.99804 l 0,5.61524 -1.62109,0 0,-10.70313 1.31836,0 0.26367,1.46485 0.0781,0 q 0.49805,-0.79102 1.39649,-1.22071 0.89844,-0.43945 2.00195,-0.43945 1.93359,0 2.91016,0.9375 0.97656,0.92774 0.97656,2.97852 l 0,6.98242 -1.62109,0 z" />
        <path
           id="path4170"
           style="font-style:normal;font-variant:normal;font-weight:normal;font-stretch:normal;font-size:20px;font-family:'Open Sans';-inkscape-font-specification:'Open Sans';text-align:justify;text-anchor:start"
           d="m 520.02734,731.47915 q 0.42969,0 0.83008,-0.0586 0.40039,-0.0684 0.63477,-0.13672 l 0,1.24023 q -0.26367,0.12696 -0.78125,0.20508 -0.50782,0.0879 -0.91797,0.0879 -3.10547,0 -3.10547,-3.27148 l 0,-6.36719 -1.5332,0 0,-0.78125 1.5332,-0.67383 0.68359,-2.28516 0.9375,0 0,2.48047 3.10547,0 0,1.25977 -3.10547,0 0,6.29883 q 0,0.96679 0.45899,1.48437 0.45898,0.51758 1.25976,0.51758 z" />
        <path
           id="path4172"
           style="font-style:normal;font-variant:normal;font-weight:normal;font-stretch:normal;font-size:20px;font-family:'Open Sans';-inkscape-font-specification:'Open Sans';text-align:justify;text-anchor:start"
           d="m 528.52344,721.72329 q 0.71289,0 1.27929,0.11719 l -0.22461,1.5039 q -0.66406,-0.14648 -1.17187,-0.14648 -1.29883,0 -2.22656,1.05469 -0.91797,1.05469 -0.91797,2.62695 l 0,5.74219 -1.6211,0 0,-10.70313 1.3379,0 0.18554,1.98243 0.0781,0 q 0.5957,-1.04493 1.43554,-1.61133 0.83985,-0.56641 1.84571,-0.56641 z" />
        <path
           id="path4174"
           style="font-style:normal;font-variant:normal;font-weight:normal;font-stretch:normal;font-size:20px;font-family:'Open Sans';-inkscape-font-specification:'Open Sans';text-align:justify;text-anchor:start"
           d="m 541.04297,727.2604 q 0,2.61719 -1.31836,4.0918 -1.31836,1.46484 -3.64258,1.46484 -1.43555,0 -2.54883,-0.67383 -1.11328,-0.67383 -1.71875,-1.93359 -0.60547,-1.25977 -0.60547,-2.94922 0,-2.61719 1.3086,-4.07227 1.30859,-1.46484 3.63281,-1.46484 2.24609,0 3.56445,1.49414 1.32813,1.49414 1.32813,4.04297 z m -8.1543,0 q 0,2.05078 0.82031,3.125 0.82032,1.07422 2.41211,1.07422 1.5918,0 2.41211,-1.06445 0.83008,-1.07422 0.83008,-3.13477 0,-2.04102 -0.83008,-3.0957 -0.82031,-1.06446 -2.43164,-1.06446 -1.59179,0 -2.40234,1.04493 -0.81055,1.04492 -0.81055,3.11523 z" />
        <path
           id="path4176"
           style="font-style:normal;font-variant:normal;font-weight:normal;font-stretch:normal;font-size:20px;font-family:'Open Sans';-inkscape-font-specification:'Open Sans';text-align:justify;text-anchor:start"
           d="m 551.16016,731.18618 -0.0879,0 q -1.12305,1.63086 -3.35938,1.63086 -2.09961,0 -3.27148,-1.43555 -1.16211,-1.43554 -1.16211,-4.08203 0,-2.64648 1.17187,-4.11133 1.17188,-1.46484 3.26172,-1.46484 2.17773,0 3.33984,1.58203 l 0.12696,0 -0.0684,-0.77148 -0.0391,-0.75196 0,-4.35546 1.62109,0 0,15.19531 -1.31836,0 -0.21484,-1.43555 z m -3.24219,0.27344 q 1.66015,0 2.40234,-0.89844 0.75196,-0.9082 0.75196,-2.91992 l 0,-0.3418 q 0,-2.27539 -0.76172,-3.24218 -0.75196,-0.97657 -2.41211,-0.97657 -1.42578,0 -2.1875,1.11328 -0.75196,1.10352 -0.75196,3.125 0,2.05079 0.75196,3.09571 0.75195,1.04492 2.20703,1.04492 z" />
        <path
           id="path4178"
           style="font-style:normal;font-variant:normal;font-weight:normal;font-stretch:normal;font-size:20px;font-family:'Open Sans';-inkscape-font-specification:'Open Sans';text-align:justify;text-anchor:start"
           d="m 557.66406,721.9186 0,6.94336 q 0,1.3086 0.59571,1.95313 0.5957,0.64453 1.86523,0.64453 1.67969,0 2.45117,-0.91797 0.78125,-0.91797 0.78125,-2.99805 l 0,-5.625 1.6211,0 0,10.70313 -1.3379,0 -0.23437,-1.43555 -0.0879,0 q -0.49805,0.79102 -1.38672,1.21094 -0.87891,0.41992 -2.01172,0.41992 -1.95312,0 -2.92969,-0.92773 -0.96679,-0.92774 -0.96679,-2.96875 l 0,-7.00196 1.64062,0 z" />
        <path
           id="path4180"
           style="font-style:normal;font-variant:normal;font-weight:normal;font-stretch:normal;font-size:20px;font-family:'Open Sans';-inkscape-font-specification:'Open Sans';text-align:justify;text-anchor:start"
           d="m 572.68359,732.81704 q -2.32422,0 -3.60351,-1.42578 -1.26953,-1.43555 -1.26953,-4.05273 0,-2.68555 1.28906,-4.1504 1.29883,-1.46484 3.69141,-1.46484 0.77148,0 1.54296,0.16602 0.77149,0.16601 1.21094,0.39062 l -0.49805,1.37695 q -0.5371,-0.21484 -1.17187,-0.35156 -0.63477,-0.14648 -1.12305,-0.14648 -3.26172,0 -3.26172,4.16015 0,1.97266 0.79102,3.02735 0.80078,1.05469 2.36328,1.05469 1.33789,0 2.74414,-0.57618 l 0,1.43555 q -1.07422,0.55664 -2.70508,0.55664 z" />
        <path
           id="path4182"
           style="font-style:normal;font-variant:normal;font-weight:normal;font-stretch:normal;font-size:20px;font-family:'Open Sans';-inkscape-font-specification:'Open Sans';text-align:justify;text-anchor:start"
           d="m 579.55859,732.62173 -1.62109,0 0,-10.70313 1.62109,0 0,10.70313 z m -1.75781,-13.60352 q 0,-0.55664 0.27344,-0.81054 0.27344,-0.26368 0.68359,-0.26368 0.39063,0 0.67383,0.26368 0.2832,0.26367 0.2832,0.81054 0,0.54688 -0.2832,0.82032 -0.2832,0.26367 -0.67383,0.26367 -0.41015,0 -0.68359,-0.26367 -0.27344,-0.27344 -0.27344,-0.82032 z" />
        <path
           id="path4184"
           style="font-style:normal;font-variant:normal;font-weight:normal;font-stretch:normal;font-size:20px;font-family:'Open Sans';-inkscape-font-specification:'Open Sans';text-align:justify;text-anchor:start"
           d="m 590.33984,732.62173 0,-6.92383 q 0,-1.30859 -0.5957,-1.95312 -0.5957,-0.64454 -1.86523,-0.64454 -1.67969,0 -2.46094,0.90821 -0.78125,0.9082 -0.78125,2.99804 l 0,5.61524 -1.6211,0 0,-10.70313 1.31836,0 0.26368,1.46485 0.0781,0 q 0.49805,-0.79102 1.39649,-1.22071 0.89843,-0.43945 2.00195,-0.43945 1.93359,0 2.91015,0.9375 0.97657,0.92774 0.97657,2.97852 l 0,6.98242 -1.6211,0 z" />
        <path
           id="path4186"
           style="font-style:normal;font-variant:normal;font-weight:normal;font-stretch:normal;font-size:20px;font-family:'Open Sans';-inkscape-font-specification:'Open Sans';text-align:justify;text-anchor:start"
           d="m 604.04102,721.9186 0,1.02539 -1.98243,0.23438 q 0.27344,0.3418 0.48828,0.89844 0.21485,0.54687 0.21485,1.24023 0,1.57227 -1.07422,2.50977 -1.07422,0.9375 -2.94922,0.9375 -0.47851,0 -0.89844,-0.0781 -1.03515,0.54688 -1.03515,1.37695 0,0.43946 0.36133,0.6543 0.36132,0.20508 1.24023,0.20508 l 1.89453,0 q 1.73828,0 2.66602,0.73242 0.9375,0.73242 0.9375,2.12891 0,1.77734 -1.42578,2.70508 -1.42579,0.9375 -4.16016,0.9375 -2.09961,0 -3.24219,-0.78125 -1.13281,-0.78125 -1.13281,-2.20704 0,-0.97656 0.625,-1.68945 0.625,-0.71289 1.75781,-0.9668 -0.41015,-0.18554 -0.69336,-0.57617 -0.27344,-0.39062 -0.27344,-0.9082 0,-0.58594 0.3125,-1.02539 0.3125,-0.43945 0.98633,-0.84961 -0.83008,-0.3418 -1.35742,-1.16211 -0.51758,-0.82031 -0.51758,-1.875 0,-1.75781 1.05469,-2.70508 1.05469,-0.95703 2.98828,-0.95703 0.83985,0 1.51367,0.19531 l 3.70118,0 z m -8.53516,12.5 q 0,0.86914 0.73242,1.31836 0.73242,0.44922 2.09961,0.44922 2.04102,0 3.01758,-0.61523 0.98633,-0.60547 0.98633,-1.65039 0,-0.86914 -0.53711,-1.21094 -0.53711,-0.33203 -2.02149,-0.33203 l -1.94336,0 q -1.10351,0 -1.71875,0.52734 -0.61523,0.52735 -0.61523,1.51367 z m 0.87891,-9.07226 q 0,1.12304 0.63476,1.69922 0.63477,0.57617 1.76758,0.57617 2.37305,0 2.37305,-2.30469 0,-2.41211 -2.40235,-2.41211 -1.14258,0 -1.75781,0.61524 -0.61523,0.61523 -0.61523,1.82617 z" />
        <path
           id="path4188"
           style="font-style:normal;font-variant:normal;font-weight:bold;font-stretch:normal;font-size:40px;font-family:Lato;-inkscape-font-specification:'Lato Bold';text-align:justify;text-anchor:start"
           d="m 505.48,768.945 0,10.18 -5.38,0 0,-28.92 9.42,0 q 2.9,0 5.02,0.68 2.12,0.68 3.5,1.9 1.38,1.22 2.04,2.92 0.66,1.7 0.66,3.72 0,2.1 -0.7,3.86 -0.7,1.74 -2.1,3 -1.4,1.26 -3.5,1.96 -2.1,0.7 -4.92,0.7 l -4.04,0 z m 0,-4.2 4.04,0 q 1.48,0 2.58,-0.36 1.1,-0.38 1.82,-1.06 0.72,-0.7 1.08,-1.68 0.36,-1 0.36,-2.22 0,-1.16 -0.36,-2.1 -0.36,-0.94 -1.08,-1.6 -0.72,-0.66 -1.82,-1 -1.1,-0.36 -2.58,-0.36 l -4.04,0 0,10.38 z" />
        <path
           id="path4190"
           style="font-style:normal;font-variant:normal;font-weight:bold;font-stretch:normal;font-size:40px;font-family:Lato;-inkscape-font-specification:'Lato Bold';text-align:justify;text-anchor:start"
           d="m 524.64,779.125 0,-20.52 2.9,0 q 0.76,0 1.06,0.28 0.3,0.28 0.4,0.96 l 0.3,2.48 q 1.1,-1.9 2.58,-3 1.48,-1.1 3.32,-1.1 1.52,0 2.52,0.7 l -0.64,3.7 q -0.06,0.36 -0.26,0.52 -0.2,0.14 -0.54,0.14 -0.3,0 -0.82,-0.14 -0.52,-0.14 -1.38,-0.14 -1.54,0 -2.64,0.86 -1.1,0.84 -1.86,2.48 l 0,12.78 -4.94,0 z" />
        <path
           id="path4192"
           style="font-style:normal;font-variant:normal;font-weight:bold;font-stretch:normal;font-size:40px;font-family:Lato;-inkscape-font-specification:'Lato Bold';text-align:justify;text-anchor:start"
           d="m 549.44812,758.285 q 1.94,0 3.56,0.62 1.64001,0.62 2.82,1.82 1.18,1.18 1.84001,2.92 0.65999,1.72 0.65999,3.94 0,0.56 -0.06,0.94 -0.04,0.36 -0.18001,0.58 -0.12,0.2 -0.34,0.3 -0.21999,0.08 -0.55999,0.08 l -12.68001,0 q 0.22,3.16 1.7,4.64 1.48001,1.48 3.92,1.48 1.2,0 2.06001,-0.28 0.87999,-0.28 1.51999,-0.62 0.66,-0.34 1.14,-0.62 0.5,-0.28 0.96001,-0.28 0.29999,0 0.51999,0.12 0.22001,0.12 0.38,0.34 l 1.44001,1.8 q -0.82001,0.96 -1.84,1.62 -1.02,0.64 -2.14,1.04 -1.10001,0.38 -2.26,0.54 -1.14,0.16 -2.22,0.16 -2.14,0 -3.98001,-0.7 -1.84,-0.72 -3.2,-2.1 -1.35999,-1.4 -2.14,-3.44 -0.78,-2.06 -0.78,-4.76 0,-2.1 0.68001,-3.94 0.67999,-1.86 1.93999,-3.22 1.28,-1.38 3.10001,-2.18 1.84,-0.8 4.13999,-0.8 z m 0.10001,3.54 q -2.16001,0 -3.38,1.22 -1.22001,1.22 -1.56001,3.46 l 9.28,0 q 0,-0.96 -0.26,-1.8 -0.26,-0.86 -0.8,-1.5 -0.53999,-0.64 -1.36,-1 -0.81999,-0.38 -1.91999,-0.38 z" />
        <path
           id="path4194"
           style="font-style:normal;font-variant:normal;font-weight:bold;font-stretch:normal;font-size:40px;font-family:Lato;-inkscape-font-specification:'Lato Bold';text-align:justify;text-anchor:start"
           d="m 576.81438,779.125 q -0.96001,0 -1.26,-0.9 l -0.40001,-1.98 q -0.64,0.72 -1.33999,1.3 -0.70001,0.58 -1.52001,1 -0.8,0.42 -1.73999,0.64 -0.92001,0.24 -2,0.24 -1.68001,0 -3.08001,-0.7 -1.39999,-0.7 -2.41999,-2.02 -1,-1.34 -1.56001,-3.3 -0.53999,-1.96 -0.53999,-4.48 0,-2.28 0.62,-4.24 0.62,-1.96 1.77999,-3.4 1.16,-1.44 2.78,-2.24 1.62,-0.82 3.64,-0.82 1.72,0 2.94001,0.56 1.22,0.54 2.17999,1.46 l 0,-10.84 4.94001,0 0,29.72 -3.02,0 z m -6.58001,-3.62 q 1.54,0 2.62,-0.64 1.08001,-0.64 2.04,-1.82 l 0,-9.2 q -0.83999,-1.02 -1.83999,-1.44 -0.98,-0.42 -2.12,-0.42 -1.12,0 -2.04001,0.42 -0.9,0.42 -1.54,1.28 -0.62,0.84 -0.96,2.16 -0.33999,1.3 -0.33999,3.08 0,1.8 0.28,3.06 0.29999,1.24 0.84,2.04 0.54,0.78 1.31999,1.14 0.78,0.34 1.74,0.34 z" />
        <path
           id="path4196"
           style="font-style:normal;font-variant:normal;font-weight:bold;font-stretch:normal;font-size:40px;font-family:Lato;-inkscape-font-specification:'Lato Bold';text-align:justify;text-anchor:start"
           d="m 590.44687,758.605 0,20.52 -4.93999,0 0,-20.52 4.93999,0 z m 0.74,-5.98 q 0,0.64 -0.26,1.2 -0.26,0.56 -0.7,0.98 -0.42,0.42 -1,0.68 -0.57999,0.24 -1.23999,0.24 -0.64001,0 -1.22,-0.24 -0.56001,-0.26 -0.98001,-0.68 -0.41999,-0.42 -0.68,-0.98 -0.23999,-0.56 -0.23999,-1.2 0,-0.66 0.23999,-1.24 0.26001,-0.58 0.68,-1 0.42,-0.42 0.98001,-0.66 0.57999,-0.26 1.22,-0.26 0.66,0 1.23999,0.26 0.58,0.24 1,0.66 0.44,0.42 0.7,1 0.26,0.58 0.26,1.24 z" />
        <path
           id="path4198"
           style="font-style:normal;font-variant:normal;font-weight:bold;font-stretch:normal;font-size:40px;font-family:Lato;-inkscape-font-specification:'Lato Bold';text-align:justify;text-anchor:start"
           d="m 610.46625,762.945 q -0.22,0.28 -0.44,0.44 -0.2,0.16 -0.6,0.16 -0.38,0 -0.74,-0.22 -0.36,-0.24 -0.86,-0.52 -0.5,-0.3 -1.2,-0.52 -0.68,-0.24 -1.7,-0.24 -1.3,0 -2.28,0.48 -0.98,0.46 -1.64,1.34 -0.64,0.88 -0.96,2.14 -0.32,1.24 -0.32,2.82 0,1.64 0.34,2.92 0.36,1.28 1.02,2.16 0.66,0.86 1.6,1.32 0.94,0.44 2.12,0.44 1.18,0 1.9,-0.28 0.74,-0.3 1.24,-0.64 0.5,-0.36 0.86,-0.64 0.38,-0.3 0.84,-0.3 0.6,0 0.9,0.46 l 1.42,1.8 q -0.82,0.96 -1.78,1.62 -0.96,0.64 -2,1.04 -1.02,0.38 -2.12,0.54 -1.1,0.16 -2.18,0.16 -1.9,0 -3.58,-0.7 -1.68,-0.72 -2.94,-2.08 -1.24,-1.36 -1.98,-3.32 -0.72,-1.98 -0.72,-4.5 0,-2.26 0.64,-4.18 0.66,-1.94 1.92,-3.34 1.26,-1.42 3.12,-2.22 1.86,-0.8 4.28,-0.8 2.3,0 4.02,0.74 1.74,0.74 3.12,2.12 l -1.3,1.8 z" />
        <path
           id="path4200"
           style="font-style:normal;font-variant:normal;font-weight:bold;font-stretch:normal;font-size:40px;font-family:Lato;-inkscape-font-specification:'Lato Bold';text-align:justify;text-anchor:start"
           d="m 621.84875,779.445 q -2.66,0 -4.1,-1.5 -1.44,-1.52 -1.44,-4.18 l 0,-11.46 -2.08,0 q -0.4,0 -0.7,-0.26 -0.28,-0.26 -0.28,-0.78 l 0,-1.96 3.3,-0.54 1.04,-5.6 q 0.08,-0.4 0.36,-0.62 0.3,-0.22 0.74,-0.22 l 2.56,0 0,6.46 5.4,0 0,3.52 -5.4,0 0,11.12 q 0,0.96 0.48,1.5 0.48,0.54 1.28,0.54 0.46,0 0.76,-0.1 0.32,-0.12 0.54,-0.24 0.24,-0.12 0.42,-0.22 0.18,-0.12 0.36,-0.12 0.22,0 0.36,0.12 0.14,0.1 0.3,0.32 l 1.48,2.4 q -1.08,0.9 -2.48,1.36 -1.4,0.46 -2.9,0.46 z" />
        <path
           id="path4202"
           style="font-style:normal;font-variant:normal;font-weight:bold;font-stretch:normal;font-size:40px;font-family:Lato;-inkscape-font-specification:'Lato Bold';text-align:justify;text-anchor:start"
           d="m 635.8375,758.605 0,20.52 -4.94,0 0,-20.52 4.94,0 z m 0.74,-5.98 q 0,0.64 -0.26,1.2 -0.26,0.56 -0.7,0.98 -0.42,0.42 -1,0.68 -0.58,0.24 -1.24,0.24 -0.64,0 -1.22,-0.24 -0.56,-0.26 -0.98,-0.68 -0.42,-0.42 -0.68,-0.98 -0.24,-0.56 -0.24,-1.2 0,-0.66 0.24,-1.24 0.26,-0.58 0.68,-1 0.42,-0.42 0.98,-0.66 0.58,-0.26 1.22,-0.26 0.66,0 1.24,0.26 0.58,0.24 1,0.66 0.44,0.42 0.7,1 0.26,0.58 0.26,1.24 z" />
        <path
           id="path4204"
           style="font-style:normal;font-variant:normal;font-weight:bold;font-stretch:normal;font-size:40px;font-family:Lato;-inkscape-font-specification:'Lato Bold';text-align:justify;text-anchor:start"
           d="m 651.71687,779.125 -4.47999,0 -8.16001,-20.52 4.1,0 q 0.54,0 0.9,0.26 0.38,0.26 0.52,0.66 l 3.96,10.96 q 0.34001,0.96 0.56001,1.88 0.23999,0.92 0.41999,1.84 0.18,-0.92 0.4,-1.84 0.24,-0.92 0.6,-1.88 l 4.06,-10.96 q 0.14001,-0.4 0.5,-0.66 0.36,-0.26 0.86,-0.26 l 3.9,0 -8.14,20.52 z" />
        <path
           id="path4206"
           style="font-style:normal;font-variant:normal;font-weight:bold;font-stretch:normal;font-size:40px;font-family:Lato;-inkscape-font-specification:'Lato Bold';text-align:justify;text-anchor:start"
           d="m 670.62,758.285 q 1.94,0 3.56,0.62 1.64,0.62 2.82,1.82 1.18,1.18 1.84,2.92 0.66,1.72 0.66,3.94 0,0.56 -0.06,0.94 -0.04,0.36 -0.18,0.58 -0.12,0.2 -0.34,0.3 -0.22,0.08 -0.56,0.08 l -12.68,0 q 0.22,3.16 1.7,4.64 1.48,1.48 3.92,1.48 1.2,0 2.06,-0.28 0.88,-0.28 1.52,-0.62 0.66,-0.34 1.14,-0.62 0.5,-0.28 0.96,-0.28 0.3,0 0.52,0.12 0.22,0.12 0.38,0.34 l 1.44,1.8 q -0.82,0.96 -1.84,1.62 -1.02,0.64 -2.14,1.04 -1.1,0.38 -2.26,0.54 -1.14,0.16 -2.22,0.16 -2.14,0 -3.98,-0.7 -1.84,-0.72 -3.2,-2.1 -1.36,-1.4 -2.14,-3.44 -0.78,-2.06 -0.78,-4.76 0,-2.1 0.68,-3.94 0.68,-1.86 1.94,-3.22 1.28,-1.38 3.1,-2.18 1.84,-0.8 4.14,-0.8 z m 0.1,3.54 q -2.16,0 -3.38,1.22 -1.22,1.22 -1.56,3.46 l 9.28,0 q 0,-0.96 -0.26,-1.8 -0.26,-0.86 -0.8,-1.5 -0.54,-0.64 -1.36,-1 -0.82,-0.38 -1.92,-0.38 z" />
        <path
           id="path4208"
           style="font-style:normal;font-variant:normal;font-weight:bold;font-stretch:normal;font-size:40px;font-family:Lato;-inkscape-font-specification:'Lato Bold';text-align:justify;text-anchor:start"
           d="m 711.44062,772.305 q 0.44,0 0.76,0.34 l 2.12,2.3 q -1.76,2.18 -4.33999,3.34 -2.56001,1.16 -6.16001,1.16 -3.21999,0 -5.8,-1.1 -2.55999,-1.1 -4.38,-3.06 -1.82,-1.96 -2.79999,-4.68 -0.96001,-2.72 -0.96001,-5.94 0,-3.26 1.08001,-5.96 1.07999,-2.72 3.04,-4.68 1.96,-1.96 4.67999,-3.04 2.74,-1.1 6.04001,-1.1 3.21999,0 5.62,1.04 2.41999,1.02 4.14,2.72 l -1.80001,2.5 q -0.16,0.24 -0.42,0.42 -0.24,0.18 -0.67999,0.18 -0.46,0 -0.94001,-0.36 -0.48,-0.36 -1.22,-0.78 -0.74,-0.42 -1.88,-0.78 -1.12,-0.36 -2.86,-0.36 -2.04,0 -3.76,0.72 -1.69999,0.7 -2.93999,2.02 -1.22001,1.32 -1.92001,3.22 -0.68,1.88 -0.68,4.24 0,2.44 0.68,4.34 0.7,1.9 1.88,3.2 1.18001,1.3 2.78001,2 1.59999,0.68 3.43999,0.68 1.1,0 1.98,-0.12 0.9,-0.12 1.64,-0.38 0.76,-0.26 1.42,-0.66 0.68,-0.42 1.34,-1.02 0.20001,-0.18 0.42001,-0.28 0.21999,-0.12 0.47999,-0.12 z" />
        <path
           id="path4210"
           style="font-style:normal;font-variant:normal;font-weight:bold;font-stretch:normal;font-size:40px;font-family:Lato;-inkscape-font-specification:'Lato Bold';text-align:justify;text-anchor:start"
           d="m 734.1575,779.125 -2.22,0 q -0.7,0 -1.1,-0.2 -0.4,-0.22 -0.6,-0.86 l -0.44,-1.46 q -0.78,0.7 -1.54,1.24 -0.74,0.52 -1.54,0.88 -0.8,0.36 -1.7,0.54 -0.9,0.18 -2,0.18 -1.3,0 -2.4,-0.34 -1.1,-0.36 -1.9,-1.06 -0.78,-0.7 -1.22,-1.74 -0.44,-1.04 -0.44,-2.42 0,-1.16 0.6,-2.28 0.62,-1.14 2.04,-2.04 1.42,-0.92 3.78,-1.52 2.36,-0.6 5.86,-0.68 l 0,-1.2 q 0,-2.06 -0.88,-3.04 -0.86,-1 -2.52,-1 -1.2,0 -2,0.28 -0.8,0.28 -1.4,0.64 -0.58,0.34 -1.08,0.62 -0.5,0.28 -1.1,0.28 -0.5,0 -0.86,-0.26 -0.36,-0.26 -0.58,-0.64 l -0.9,-1.58 q 3.54,-3.24 8.54,-3.24 1.8,0 3.2,0.6 1.42,0.58 2.4,1.64 0.98,1.04 1.48,2.5 0.52,1.46 0.52,3.2 l 0,12.96 z m -9.6,-3.08 q 0.76,0 1.4,-0.14 0.64,-0.14 1.2,-0.42 0.58,-0.28 1.1,-0.68 0.54,-0.42 1.08,-0.98 l 0,-3.46 q -2.16,0.1 -3.62,0.38 -1.44,0.26 -2.32,0.68 -0.88,0.42 -1.26,0.98 -0.36,0.56 -0.36,1.22 0,1.3 0.76,1.86 0.78,0.56 2.02,0.56 z" />
        <path
           id="path4212"
           style="font-style:normal;font-variant:normal;font-weight:bold;font-stretch:normal;font-size:40px;font-family:Lato;-inkscape-font-specification:'Lato Bold';text-align:justify;text-anchor:start"
           d="m 751.195,762.605 q -0.2,0.32 -0.42,0.46 -0.22,0.12 -0.56,0.12 -0.36,0 -0.78,-0.2 -0.4,-0.2 -0.94,-0.44 -0.54,-0.26 -1.24,-0.46 -0.68,-0.2 -1.62,-0.2 -1.46,0 -2.3,0.62 -0.84,0.62 -0.84,1.62 0,0.66 0.42,1.12 0.44,0.44 1.14,0.78 0.72,0.34 1.62,0.62 0.9,0.26 1.84,0.58 0.94,0.32 1.84,0.74 0.9,0.4 1.6,1.04 0.72,0.62 1.14,1.5 0.44,0.88 0.44,2.12 0,1.48 -0.54,2.74 -0.54,1.24 -1.58,2.16 -1.04,0.9 -2.58,1.42 -1.52,0.5 -3.5,0.5 -1.06,0 -2.08,-0.2 -1,-0.18 -1.94,-0.52 -0.92,-0.34 -1.72,-0.8 -0.78,-0.46 -1.38,-1 l 1.14,-1.88 q 0.22,-0.34 0.52,-0.52 0.3,-0.18 0.76,-0.18 0.46,0 0.86,0.26 0.42,0.26 0.96,0.56 0.54,0.3 1.26,0.56 0.74,0.26 1.86,0.26 0.88,0 1.5,-0.2 0.64,-0.22 1.04,-0.56 0.42,-0.34 0.6,-0.78 0.2,-0.46 0.2,-0.94 0,-0.72 -0.44,-1.18 -0.42,-0.46 -1.14,-0.8 -0.7,-0.34 -1.62,-0.6 -0.9,-0.28 -1.86,-0.6 -0.94,-0.32 -1.86,-0.74 -0.9,-0.44 -1.62,-1.1 -0.7,-0.66 -1.14,-1.62 -0.42,-0.96 -0.42,-2.32 0,-1.26 0.5,-2.4 0.5,-1.14 1.46,-1.98 0.98,-0.86 2.42,-1.36 1.46,-0.52 3.36,-0.52 2.12,0 3.86,0.7 1.74,0.7 2.9,1.84 l -1.12,1.78 z" />
        <path
           id="path4214"
           style="font-style:normal;font-variant:normal;font-weight:bold;font-stretch:normal;font-size:40px;font-family:Lato;-inkscape-font-specification:'Lato Bold';text-align:justify;text-anchor:start"
           d="m 756.515,779.125 0,-29.72 4.94,0 0,11.42 q 1.2,-1.14 2.64,-1.84 1.44,-0.7 3.38,-0.7 1.68,0 2.98,0.58 1.3,0.56 2.16,1.6 0.88,1.02 1.32,2.46 0.46,1.42 0.46,3.14 l 0,13.06 -4.94,0 0,-13.06 q 0,-1.88 -0.88,-2.9 -0.86,-1.04 -2.6,-1.04 -1.28,0 -2.4,0.58 -1.12,0.58 -2.12,1.58 l 0,14.84 -4.94,0 z" />
        <path
           id="path4216"
           style="font-style:normal;font-variant:normal;font-weight:bold;font-stretch:normal;font-size:40px;font-family:Lato;-inkscape-font-specification:'Lato Bold';text-align:justify;text-anchor:start"
           d="m 906.05062,750.205 0,4.28 -12.81999,0 0,8.56 10.81999,0 0,4.3 -10.81999,0 0,11.78 -5.42001,0 0,-28.92 18.24,0 z" />
        <path
           id="path4218"
           style="font-style:normal;font-variant:normal;font-weight:bold;font-stretch:normal;font-size:40px;font-family:Lato;-inkscape-font-specification:'Lato Bold';text-align:justify;text-anchor:start"
           d="m 917.4625,758.285 q 2.3,0 4.16,0.74 1.88,0.74 3.2,2.1 1.32,1.36 2.04,3.32 0.72,1.96 0.72,4.38 0,2.44 -0.72,4.4 -0.72,1.96 -2.04,3.34 -1.32,1.38 -3.2,2.12 -1.86,0.74 -4.16,0.74 -2.3,0 -4.18,-0.74 -1.88,-0.74 -3.22,-2.12 -1.32,-1.38 -2.06,-3.34 -0.72,-1.96 -0.72,-4.4 0,-2.42 0.72,-4.38 0.74,-1.96 2.06,-3.32 1.34,-1.36 3.22,-2.1 1.88,-0.74 4.18,-0.74 z m 0,17.34 q 2.56,0 3.78,-1.72 1.24,-1.72 1.24,-5.04 0,-3.32 -1.24,-5.06 -1.22,-1.74 -3.78,-1.74 -2.6,0 -3.84,1.76 -1.24,1.74 -1.24,5.04 0,3.3 1.24,5.04 1.24,1.72 3.84,1.72 z" />
        <path
           id="path4220"
           style="font-style:normal;font-variant:normal;font-weight:bold;font-stretch:normal;font-size:40px;font-family:Lato;-inkscape-font-specification:'Lato Bold';text-align:justify;text-anchor:start"
           d="m 931.43687,779.125 0,-20.52 2.9,0 q 0.76,0 1.06001,0.28 0.29999,0.28 0.39999,0.96 l 0.3,2.48 q 1.1,-1.9 2.58,-3 1.48001,-1.1 3.32001,-1.1 1.52,0 2.52,0.7 l -0.64,3.7 q -0.06,0.36 -0.26,0.52 -0.20001,0.14 -0.54001,0.14 -0.29999,0 -0.81999,-0.14 -0.52,-0.14 -1.38,-0.14 -1.54001,0 -2.64,0.86 -1.1,0.84 -1.86,2.48 l 0,12.78 -4.94001,0 z" />
        <path
           id="path4222"
           style="font-style:normal;font-variant:normal;font-weight:bold;font-stretch:normal;font-size:40px;font-family:Lato;-inkscape-font-specification:'Lato Bold';text-align:justify;text-anchor:start"
           d="m 956.245,758.285 q 1.94,0 3.56,0.62 1.64,0.62 2.82,1.82 1.18,1.18 1.84,2.92 0.66,1.72 0.66,3.94 0,0.56 -0.06,0.94 -0.04,0.36 -0.18,0.58 -0.12,0.2 -0.34,0.3 -0.22,0.08 -0.56,0.08 l -12.68,0 q 0.22,3.16 1.7,4.64 1.48,1.48 3.92,1.48 1.2,0 2.06,-0.28 0.88,-0.28 1.52,-0.62 0.66,-0.34 1.14,-0.62 0.5,-0.28 0.96,-0.28 0.3,0 0.52,0.12 0.22,0.12 0.38,0.34 l 1.44,1.8 q -0.82,0.96 -1.84,1.62 -1.02,0.64 -2.14,1.04 -1.1,0.38 -2.26,0.54 -1.14,0.16 -2.22,0.16 -2.14,0 -3.98,-0.7 -1.84,-0.72 -3.2,-2.1 -1.36,-1.4 -2.14,-3.44 -0.78,-2.06 -0.78,-4.76 0,-2.1 0.68,-3.94 0.68,-1.86 1.94,-3.22 1.28,-1.38 3.1,-2.18 1.84,-0.8 4.14,-0.8 z m 0.1,3.54 q -2.16,0 -3.38,1.22 -1.22,1.22 -1.56,3.46 l 9.28,0 q 0,-0.96 -0.26,-1.8 -0.26,-0.86 -0.8,-1.5 -0.54,-0.64 -1.36,-1 -0.82,-0.38 -1.92,-0.38 z" />
        <path
           id="path4224"
           style="font-style:normal;font-variant:normal;font-weight:bold;font-stretch:normal;font-size:40px;font-family:Lato;-inkscape-font-specification:'Lato Bold';text-align:justify;text-anchor:start"
           d="m 983.59125,762.945 q -0.22,0.28 -0.44,0.44 -0.2,0.16 -0.6,0.16 -0.38,0 -0.74,-0.22 -0.36,-0.24 -0.86,-0.52 -0.5,-0.3 -1.2,-0.52 -0.68,-0.24 -1.7,-0.24 -1.3,0 -2.28,0.48 -0.98,0.46 -1.64,1.34 -0.64,0.88 -0.96,2.14 -0.32,1.24 -0.32,2.82 0,1.64 0.34,2.92 0.36,1.28 1.02,2.16 0.66,0.86 1.6,1.32 0.94,0.44 2.12,0.44 1.18,0 1.9,-0.28 0.74,-0.3 1.24,-0.64 0.5,-0.36 0.86,-0.64 0.38,-0.3 0.84,-0.3 0.6,0 0.9,0.46 l 1.42,1.8 q -0.82,0.96 -1.78,1.62 -0.96,0.64 -2,1.04 -1.02,0.38 -2.12,0.54 -1.1,0.16 -2.18,0.16 -1.9,0 -3.58,-0.7 -1.68,-0.72 -2.94,-2.08 -1.24,-1.36 -1.98,-3.32 -0.72,-1.98 -0.72,-4.5 0,-2.26 0.64,-4.18 0.66,-1.94 1.92,-3.34 1.26,-1.42 3.12,-2.22 1.86,-0.8 4.28,-0.8 2.3,0 4.02,0.74 1.74,0.74 3.12,2.12 l -1.3,1.8 z" />
        <path
           id="path4226"
           style="font-style:normal;font-variant:normal;font-weight:bold;font-stretch:normal;font-size:40px;font-family:Lato;-inkscape-font-specification:'Lato Bold';text-align:justify;text-anchor:start"
           d="m 1004.3138,779.125 -2.2201,0 q -0.7,0 -1.1,-0.2 -0.4,-0.22 -0.6,-0.86 l -0.43995,-1.46 q -0.78,0.7 -1.54,1.24 -0.74,0.52 -1.54,0.88 -0.8,0.36 -1.7,0.54 -0.9,0.18 -2,0.18 -1.3,0 -2.4,-0.34 -1.1,-0.36 -1.9,-1.06 -0.78,-0.7 -1.22,-1.74 -0.44,-1.04 -0.44,-2.42 0,-1.16 0.6,-2.28 0.62,-1.14 2.04,-2.04 1.42,-0.92 3.78,-1.52 2.36,-0.6 5.86,-0.68 l 0,-1.2 q 0,-2.06 -0.88,-3.04 -0.86,-1 -2.52,-1 -1.2,0 -2,0.28 -0.8,0.28 -1.4,0.64 -0.58,0.34 -1.08,0.62 -0.5,0.28 -1.1,0.28 -0.5,0 -0.86,-0.26 -0.36,-0.26 -0.58,-0.64 l -0.9,-1.58 q 3.54,-3.24 8.54,-3.24 1.8,0 3.2,0.6 1.41995,0.58 2.40005,1.64 0.98,1.04 1.48,2.5 0.52,1.46 0.52,3.2 l 0,12.96 z m -9.60005,-3.08 q 0.76,0 1.4,-0.14 0.64,-0.14 1.2,-0.42 0.58,-0.28 1.1,-0.68 0.54,-0.42 1.08,-0.98 l 0,-3.46 q -2.16,0.1 -3.62,0.38 -1.44,0.26 -2.32,0.68 -0.88,0.42 -1.26,0.98 -0.36,0.56 -0.36,1.22 0,1.3 0.76,1.86 0.78,0.56 2.02,0.56 z" />
        <path
           id="path4228"
           style="font-style:normal;font-variant:normal;font-weight:bold;font-stretch:normal;font-size:40px;font-family:Lato;-inkscape-font-specification:'Lato Bold';text-align:justify;text-anchor:start"
           d="m 1021.3513,762.605 q -0.2001,0.32 -0.4201,0.46 -0.22,0.12 -0.5599,0.12 -0.36,0 -0.7801,-0.2 -0.4,-0.2 -0.94,-0.44 -0.5399,-0.26 -1.24,-0.46 -0.6799,-0.2 -1.62,-0.2 -1.46,0 -2.2999,0.62 -0.8401,0.62 -0.8401,1.62 0,0.66 0.42,1.12 0.4401,0.44 1.14,0.78 0.72,0.34 1.62,0.62 0.9001,0.26 1.84,0.58 0.9401,0.32 1.8401,0.74 0.8999,0.4 1.6,1.04 0.7199,0.62 1.14,1.5 0.4399,0.88 0.4399,2.12 0,1.48 -0.54,2.74 -0.5399,1.24 -1.58,2.16 -1.04,0.9 -2.5799,1.42 -1.52,0.5 -3.5,0.5 -1.0601,0 -2.0801,-0.2 -1,-0.18 -1.9399,-0.52 -0.9201,-0.34 -1.72,-0.8 -0.78,-0.46 -1.38,-1 l 1.14,-1.88 q 0.22,-0.34 0.5199,-0.52 0.3,-0.18 0.76,-0.18 0.4601,0 0.86,0.26 0.42,0.26 0.9601,0.56 0.5399,0.3 1.26,0.56 0.74,0.26 1.86,0.26 0.88,0 1.5,-0.2 0.64,-0.22 1.0399,-0.56 0.42,-0.34 0.6001,-0.78 0.1999,-0.46 0.1999,-0.94 0,-0.72 -0.4399,-1.18 -0.4201,-0.46 -1.14,-0.8 -0.7001,-0.34 -1.62,-0.6 -0.9,-0.28 -1.86,-0.6 -0.9401,-0.32 -1.8601,-0.74 -0.8999,-0.44 -1.62,-1.1 -0.7,-0.66 -1.1399,-1.62 -0.42,-0.96 -0.42,-2.32 0,-1.26 0.5,-2.4 0.5,-1.14 1.4599,-1.98 0.98,-0.86 2.4201,-1.36 1.4599,-0.52 3.3599,-0.52 2.12,0 3.86,0.7 1.74,0.7 2.9001,1.84 l -1.12,1.78 z" />
        <path
           id="path4230"
           style="font-style:normal;font-variant:normal;font-weight:bold;font-stretch:normal;font-size:40px;font-family:Lato;-inkscape-font-specification:'Lato Bold';text-align:justify;text-anchor:start"
           d="m 1033.4113,779.445 q -2.66,0 -4.1,-1.5 -1.44,-1.52 -1.44,-4.18 l 0,-11.46 -2.08,0 q -0.4,0 -0.7,-0.26 -0.28,-0.26 -0.28,-0.78 l 0,-1.96 3.3,-0.54 1.0399,-5.6 q 0.08,-0.4 0.3601,-0.62 0.3,-0.22 0.74,-0.22 l 2.56,0 0,6.46 5.4,0 0,3.52 -5.4,0 0,11.12 q 0,0.96 0.48,1.5 0.48,0.54 1.28,0.54 0.46,0 0.76,-0.1 0.3199,-0.12 0.54,-0.24 0.24,-0.12 0.42,-0.22 0.18,-0.12 0.3599,-0.12 0.2201,0 0.3601,0.12 0.1399,0.1 0.3,0.32 l 1.48,2.4 q -1.08,0.9 -2.48,1.36 -1.4,0.46 -2.9,0.46 z" />
        <path
           id="path4232"
           style="font-style:normal;font-variant:normal;font-weight:bold;font-stretch:normal;font-size:40px;font-family:Lato;-inkscape-font-specification:'Lato Bold';text-align:justify;text-anchor:start"
           d="m 1047.4,758.605 0,20.52 -4.94,0 0,-20.52 4.94,0 z m 0.74,-5.98 q 0,0.64 -0.26,1.2 -0.26,0.56 -0.7,0.98 -0.42,0.42 -1,0.68 -0.58,0.24 -1.24,0.24 -0.64,0 -1.22,-0.24 -0.56,-0.26 -0.98,-0.68 -0.42,-0.42 -0.68,-0.98 -0.24,-0.56 -0.24,-1.2 0,-0.66 0.24,-1.24 0.26,-0.58 0.68,-1 0.42,-0.42 0.98,-0.66 0.58,-0.26 1.22,-0.26 0.66,0 1.24,0.26 0.58,0.24 1,0.66 0.44,0.42 0.7,1 0.26,0.58 0.26,1.24 z" />
        <path
           id="path4234"
           style="font-style:normal;font-variant:normal;font-weight:bold;font-stretch:normal;font-size:40px;font-family:Lato;-inkscape-font-specification:'Lato Bold';text-align:justify;text-anchor:start"
           d="m 1052.9994,779.125 0,-20.52 3.02,0 q 0.96,0 1.26,0.9 l 0.34,1.62 q 0.62,-0.64 1.3,-1.16 0.7,-0.52 1.46,-0.9 0.78,-0.38 1.66,-0.58 0.88,-0.2 1.92,-0.2 1.68,0 2.98,0.58 1.3,0.56 2.16,1.6 0.88,1.02 1.32,2.46 0.46,1.42 0.46,3.14 l 0,13.06 -4.94,0 0,-13.06 q 0,-1.88 -0.88,-2.9 -0.86,-1.04 -2.6,-1.04 -1.28,0 -2.4,0.58 -1.12,0.58 -2.12,1.58 l 0,14.84 -4.94,0 z" />
        <path
           id="path4236"
           style="font-style:normal;font-variant:normal;font-weight:bold;font-stretch:normal;font-size:40px;font-family:Lato;-inkscape-font-specification:'Lato Bold';text-align:justify;text-anchor:start"
           d="m 1082.8338,758.245 q 1.32,0 2.48,0.28 1.16,0.26 2.12,0.78 l 5.9,0 0,1.84 q 0,0.46 -0.24,0.72 -0.24,0.26 -0.82,0.36 l -1.84,0.34 q 0.2,0.52 0.3,1.1 0.12,0.58 0.12,1.22 0,1.52 -0.62,2.76 -0.6,1.22 -1.68,2.08 -1.06,0.86 -2.54,1.34 -1.46,0.46 -3.18,0.46 -1.16,0 -2.26,-0.22 -0.96,0.58 -0.96,1.3 0,0.62 0.56,0.92 0.58,0.28 1.5,0.4 0.94,0.12 2.12,0.16 1.18,0.02 2.4199,0.12 1.2401,0.1 2.4201,0.36 1.18,0.24 2.1,0.78 0.94,0.54 1.5,1.48 0.58,0.92 0.58,2.38 0,1.36 -0.68,2.64 -0.66,1.28 -1.94,2.28 -1.26,1 -3.1,1.6 -1.84,0.62 -4.2,0.62 -2.34,0 -4.06,-0.46 -1.72,-0.44 -2.86,-1.2 -1.12,-0.74 -1.68,-1.72 -0.56,-0.98 -0.56,-2.04 0,-1.44 0.88,-2.42 0.88,-0.98 2.44,-1.56 -0.76,-0.42 -1.22,-1.12 -0.46,-0.7 -0.46,-1.82 0,-0.46 0.16,-0.94 0.16,-0.5 0.48,-0.98 0.34,-0.48 0.84,-0.9 0.5,-0.44 1.18,-0.78 -1.56,-0.84 -2.46,-2.24 -0.88,-1.4 -0.88,-3.28 0,-1.52 0.6,-2.74 0.62,-1.24 1.7,-2.1 1.1,-0.88 2.58,-1.34 1.5,-0.46 3.26,-0.46 z m 5.42,21.8 q 0,-0.6 -0.36,-0.98 -0.36,-0.38 -0.98,-0.58 -0.62,-0.22 -1.46,-0.32 -0.82,-0.1 -1.76,-0.14 -0.92,-0.06 -1.92,-0.1 -0.98,-0.06 -1.9,-0.18 -0.84,0.46 -1.36,1.1 -0.5,0.62 -0.5,1.44 0,0.54 0.26,1 0.28,0.48 0.86,0.82 0.6,0.34 1.54,0.52 0.94,0.2 2.3,0.2 1.38,0 2.38,-0.22 1,-0.2 1.64,-0.58 0.66,-0.36 0.96,-0.88 0.3,-0.5 0.3,-1.1 z m -5.42,-11.68 q 0.92,0 1.6,-0.24 0.68,-0.26 1.12,-0.7 0.46,-0.44 0.68,-1.06 0.24,-0.62 0.24,-1.36 0,-1.52 -0.92,-2.4 -0.9,-0.9 -2.72,-0.9 -1.82,0 -2.74,0.9 -0.9,0.88 -0.9,2.4 0,0.72 0.22,1.34 0.24,0.62 0.68,1.08 0.46,0.44 1.14,0.7 0.7,0.24 1.6,0.24 z" />
        <path
           id="path4238"
           style="font-style:normal;font-variant:normal;font-weight:300;font-stretch:normal;font-size:20px;font-family:'Open Sans';-inkscape-font-specification:'Open Sans Light';text-align:justify;text-anchor:start"
           d="m 498.58203,806.86001 q 0,-0.95703 0.78125,-0.95703 0.80078,0 0.80078,0.95703 0,0.95703 -0.80078,0.95703 -0.78125,0 -0.78125,-0.95703 z" />
      </g>
      <path
         id="rect5229-8-3-2"
         d="m 381.85211,118.60391 68.19496,0 c 3.67581,0 6.63504,2.95923 6.63504,6.63504 l 0,31.56595 c 0,3.67581 -2.95923,6.63504 -6.63504,6.63504 l -68.19496,0 c -3.67581,0 -6.63504,-2.95923 -6.63504,-6.63504 l 0,-31.56595 c 0,-3.67581 2.95923,-6.63504 6.63504,-6.63504 z"
         style="fill:#54ff00;fill-opacity:0.29803922;stroke:none;stroke-width:3;stroke-miterlimit:4;stroke-dasharray:none;stroke-dashoffset:0;stroke-opacity:1" />
      <path
         d="m 439.80749,172.73304 c -6.64437,-0.0371 -7.09287,0.063 -12.94046,0.12835 -1.07927,0 -2.0405,-0.15177 -2.88369,-0.45532 -0.80945,-0.30355 -1.50086,-0.70827 -2.07423,-1.21418 -0.57337,-0.53964 -1.01182,-1.14673 -1.31537,-1.82128 -0.30355,-0.67455 -0.45532,-1.39968 -0.45532,-2.17541 l 0,-20.8941 c 0,-0.74201 -0.0675,-1.45028 -0.20236,-2.12483 -0.10118,-0.67455 -0.32041,-1.26477 -0.65768,-1.77068 -0.30355,-0.50591 -0.742,-0.89378 -1.31537,-1.1636 -0.53964,-0.30355 -1.23105,-0.45532 -2.07423,-0.45532 -1.65264,0 -2.81623,0.52278 -3.49078,1.56833 -0.64082,1.04555 -0.9781,2.4115 -1.01183,4.09787 l 0,0.91064 4.40143,0 0,5.16028 -4.40143,0 0,19.93288 -6.7792,0 0,-19.93288 -3.49078,0 0,-5.16028 3.49078,0 0,-2.22601 c 0,-3.27155 0.9781,-5.76738 2.93429,-7.48747 1.95619,-1.75383 4.67124,-2.63074 8.14515,-2.63074 3.84492,0 6.67802,0.91064 8.4993,2.73192 1.82127,1.82128 2.73191,4.21592 2.73191,7.18393 l 0,18.87046 c 0,0.33727 0.0337,0.69141 0.10119,1.06241 0.10118,0.33727 0.25295,0.65768 0.45532,0.96123 0.20236,0.26982 0.45531,0.50591 0.75886,0.70827 0.30355,0.16864 0.67455,0.25296 1.113,0.25296 0.30355,0 0,0 1.65319,0.0216 0.33727,-0.0675 -0.0511,-0.25769 0.21868,-0.32514 l 0.75887,-0.25295 0.30354,-0.10119 z"
         style="font-style:normal;font-variant:normal;font-weight:bold;font-stretch:normal;font-size:medium;line-height:125%;font-family:Raleway;-inkscape-font-specification:'Raleway Bold';letter-spacing:0px;word-spacing:0px;fill:#000000;fill-opacity:1;stroke:none;stroke-width:1px;stroke-linecap:butt;stroke-linejoin:miter;stroke-opacity:1"
         id="path6591" />
      <path
         d="m 442.43146,172.81016 c -2.15855,0 -10.45937,0.0164 -12.44732,-0.0113 -1.87313,-0.0261 3.44212,-2.83864 2.22791,-4.08655 -1.18045,-1.28164 -2.09109,-2.74878 -2.73191,-4.40142 -0.64082,-1.65264 -0.96123,-3.3896 -0.96123,-5.21088 0,-1.855 0.32041,-3.60882 0.96123,-5.26147 0.64082,-1.65264 1.55146,-3.10291 2.73191,-4.35082 1.21419,-1.28164 2.68133,-2.29346 4.40142,-3.03547 1.7201,-0.742 3.65942,-1.113 5.81797,-1.113 2.15855,0 4.08101,0.371 5.76738,1.113 1.7201,0.74201 3.17038,1.75383 4.35083,3.03547 1.21419,1.24791 2.14169,2.69818 2.78251,4.35082 0.64082,1.65265 0.96123,3.40647 0.96123,5.26147 0,1.82128 -0.32041,3.55824 -0.96123,5.21088 -0.64082,1.65264 -1.55146,3.11978 -2.73192,4.40142 -1.18045,1.24791 -2.63073,2.24287 -4.35083,2.98487 -1.72009,0.74201 -3.65942,1.11301 -5.81797,1.11301 z m -6.93097,-13.71018 c 0,1.18046 0.16864,2.25974 0.50591,3.23783 0.371,0.94437 0.86005,1.77069 1.46714,2.47896 0.64082,0.70827 1.38282,1.26478 2.22601,1.66951 0.84318,0.371 1.75382,0.5565 2.73191,0.5565 0.97809,0 1.88873,-0.1855 2.73192,-0.5565 0.84319,-0.40473 1.56833,-0.96124 2.17542,-1.66951 0.64082,-0.70827 1.12987,-1.55146 1.46714,-2.52955 0.371,-0.97809 0.5565,-2.05737 0.5565,-3.23783 0,-1.14673 -0.1855,-2.20914 -0.5565,-3.18723 -0.33727,-0.97809 -0.82632,-1.82128 -1.46714,-2.52956 -0.60709,-0.70827 -1.33223,-1.24791 -2.17542,-1.61891 -0.84319,-0.40473 -1.75383,-0.60709 -2.73192,-0.60709 -0.97809,0 -1.88873,0.20236 -2.73191,0.60709 -0.84319,0.40473 -1.58519,0.96123 -2.22601,1.66951 -0.60709,0.70827 -1.09614,1.55146 -1.46714,2.52955 -0.33727,0.97809 -0.50591,2.0405 -0.50591,3.18723 z"
         style="font-style:normal;font-variant:normal;font-weight:bold;font-stretch:normal;font-size:medium;line-height:125%;font-family:Raleway;-inkscape-font-specification:'Raleway Bold';letter-spacing:0px;word-spacing:0px;fill:#000000;fill-opacity:1;stroke:none;stroke-width:1px;stroke-linecap:butt;stroke-linejoin:miter;stroke-opacity:1"
         id="path6593" />
    </g>
  </g>
</svg>
