<?xml version="1.0" encoding="UTF-8" standalone="no"?>
<svg
   xmlns:dc="http://purl.org/dc/elements/1.1/"
   xmlns:cc="http://creativecommons.org/ns#"
   xmlns:rdf="http://www.w3.org/1999/02/22-rdf-syntax-ns#"
   xmlns:svg="http://www.w3.org/2000/svg"
   xmlns="http://www.w3.org/2000/svg"
   version="1.1"
   id="svg8568"
   viewBox="0 0 188.5285 197.77357"
   height="197.77357"
   width="188.5285">
  <defs
     id="defs8570">
    <marker
       orient="auto"
       refY="0"
       refX="0"
       id="marker11691"
       style="overflow:visible">
      <path
         id="path11693"
         d="m 5.77,0 -8.65,5 0,-10 8.65,5 z"
         style="fill:#000000;fill-opacity:1;fill-rule:evenodd;stroke:#000000;stroke-width:1pt;stroke-opacity:1"
         transform="scale(-0.2,-0.2)" />
    </marker>
    <marker
       orient="auto"
       refY="0"
       refX="0"
       id="marker11681"
       style="overflow:visible">
      <path
         id="path11683"
         d="m 5.77,0 -8.65,5 0,-10 8.65,5 z"
         style="fill:#000000;fill-opacity:1;fill-rule:evenodd;stroke:#000000;stroke-width:1pt;stroke-opacity:1"
         transform="scale(-0.2,-0.2)" />
    </marker>
    <marker
       orient="auto"
       refY="0"
       refX="0"
       id="marker11515"
       style="overflow:visible">
      <path
         id="path11517"
         d="M 0,-7.0710768 -7.0710894,0 0,7.0710589 7.0710462,0 0,-7.0710768 Z"
         style="fill:#000000;fill-opacity:1;fill-rule:evenodd;stroke:#000000;stroke-width:1pt;stroke-opacity:1"
         transform="matrix(0.2,0,0,0.2,1.2,0)" />
    </marker>
    <marker
       orient="auto"
       refY="0"
       refX="0"
       id="marker11505"
       style="overflow:visible">
      <path
         id="path11507"
         d="M 0,-7.0710768 -7.0710894,0 0,7.0710589 7.0710462,0 0,-7.0710768 Z"
         style="fill:#000000;fill-opacity:1;fill-rule:evenodd;stroke:#000000;stroke-width:1pt;stroke-opacity:1"
         transform="matrix(0.2,0,0,0.2,1.2,0)" />
    </marker>
    <marker
       orient="auto"
       refY="0"
       refX="0"
       id="marker11217"
       style="overflow:visible">
      <path
         id="path11219"
         style="fill:#000000;fill-opacity:1;fill-rule:evenodd;stroke:#000000;stroke-width:0.625;stroke-linejoin:round;stroke-opacity:1"
         d="M 8.7185878,4.0337352 -2.2072895,0.01601326 8.7185884,-4.0017078 c -1.7454984,2.3720609 -1.7354408,5.6174519 -6e-7,8.035443 z"
         transform="matrix(1.1,0,0,1.1,1.1,0)" />
    </marker>
    <marker
       orient="auto"
       refY="0"
       refX="0"
       id="marker11207"
       style="overflow:visible">
      <path
         id="path11209"
         style="fill:#000000;fill-opacity:1;fill-rule:evenodd;stroke:#000000;stroke-width:0.625;stroke-linejoin:round;stroke-opacity:1"
         d="M 8.7185878,4.0337352 -2.2072895,0.01601326 8.7185884,-4.0017078 c -1.7454984,2.3720609 -1.7354408,5.6174519 -6e-7,8.035443 z"
         transform="matrix(1.1,0,0,1.1,1.1,0)" />
    </marker>
    <marker
       orient="auto"
       refY="0"
       refX="0"
       id="marker10943"
       style="overflow:visible">
      <path
         id="path10945"
         style="fill:#000000;fill-opacity:1;fill-rule:evenodd;stroke:#000000;stroke-width:0.625;stroke-linejoin:round;stroke-opacity:1"
         d="M 8.7185878,4.0337352 -2.2072895,0.01601326 8.7185884,-4.0017078 c -1.7454984,2.3720609 -1.7354408,5.6174519 -6e-7,8.035443 z"
         transform="scale(0.6,0.6)" />
    </marker>
    <marker
       orient="auto"
       refY="0"
       refX="0"
       id="marker10933"
       style="overflow:visible">
      <path
         id="path10935"
         style="fill:#000000;fill-opacity:1;fill-rule:evenodd;stroke:#000000;stroke-width:0.625;stroke-linejoin:round;stroke-opacity:1"
         d="M 8.7185878,4.0337352 -2.2072895,0.01601326 8.7185884,-4.0017078 c -1.7454984,2.3720609 -1.7354408,5.6174519 -6e-7,8.035443 z"
         transform="scale(0.6,0.6)" />
    </marker>
    <marker
       orient="auto"
       refY="0"
       refX="0"
       id="marker10691"
       style="overflow:visible">
      <path
         id="path10693"
         style="fill:#000000;fill-opacity:1;fill-rule:evenodd;stroke:#000000;stroke-width:0.625;stroke-linejoin:round;stroke-opacity:1"
         d="M 8.7185878,4.0337352 -2.2072895,0.01601326 8.7185884,-4.0017078 c -1.7454984,2.3720609 -1.7354408,5.6174519 -6e-7,8.035443 z"
         transform="scale(0.6,0.6)" />
    </marker>
    <marker
       orient="auto"
       refY="0"
       refX="0"
       id="marker10585"
       style="overflow:visible">
      <path
         id="path10587"
         style="fill:#000000;fill-opacity:1;fill-rule:evenodd;stroke:#000000;stroke-width:0.625;stroke-linejoin:round;stroke-opacity:1"
         d="M 8.7185878,4.0337352 -2.2072895,0.01601326 8.7185884,-4.0017078 c -1.7454984,2.3720609 -1.7354408,5.6174519 -6e-7,8.035443 z"
         transform="scale(0.6,0.6)" />
    </marker>
    <marker
       style="overflow:visible"
       id="TriangleInS-0"
       refX="0"
       refY="0"
       orient="auto">
      <path
         transform="scale(-0.2,-0.2)"
         style="fill:#000000;fill-opacity:1;fill-rule:evenodd;stroke:#000000;stroke-width:1pt;stroke-opacity:1"
         d="m 5.77,0 -8.65,5 0,-10 8.65,5 z"
         id="path4312-2" />
    </marker>
    <marker
       style="overflow:visible"
       id="TriangleOutS-7"
       refX="0"
       refY="0"
       orient="auto">
      <path
         transform="scale(0.2,0.2)"
         style="fill:#000000;fill-opacity:1;fill-rule:evenodd;stroke:#000000;stroke-width:1pt;stroke-opacity:1"
         d="m 5.77,0 -8.65,5 0,-10 8.65,5 z"
         id="path4321-0" />
    </marker>
    <marker
       style="overflow:visible"
       id="marker5180-3"
       refX="0"
       refY="0"
       orient="auto">
      <path
         transform="scale(0.4,0.4)"
         style="fill:#000000;fill-opacity:1;fill-rule:evenodd;stroke:#000000;stroke-width:1pt;stroke-opacity:1"
         d="m 5.77,0 -8.65,5 0,-10 8.65,5 z"
         id="path5182-6" />
    </marker>
    <marker
       style="overflow:visible"
       id="marker5180-8-8"
       refX="0"
       refY="0"
       orient="auto">
      <path
         transform="scale(0.4,0.4)"
         style="fill:#000000;fill-opacity:1;fill-rule:evenodd;stroke:#000000;stroke-width:1pt;stroke-opacity:1"
         d="m 5.77,0 -8.65,5 0,-10 8.65,5 z"
         id="path5182-2-8" />
    </marker>
    <marker
       style="overflow:visible"
       id="TriangleInS-04"
       refX="0"
       refY="0"
       orient="auto">
      <path
         transform="scale(-0.2,-0.2)"
         style="fill:#000000;fill-opacity:1;fill-rule:evenodd;stroke:#000000;stroke-width:1pt;stroke-opacity:1"
         d="m 5.77,0 -8.65,5 0,-10 8.65,5 z"
         id="path4312-9" />
    </marker>
    <marker
       style="overflow:visible"
       id="TriangleOutS-0"
       refX="0"
       refY="0"
       orient="auto">
      <path
         transform="scale(0.2,0.2)"
         style="fill:#000000;fill-opacity:1;fill-rule:evenodd;stroke:#000000;stroke-width:1pt;stroke-opacity:1"
         d="m 5.77,0 -8.65,5 0,-10 8.65,5 z"
         id="path4321-45" />
    </marker>
    <marker
       style="overflow:visible"
       id="marker5180-9"
       refX="0"
       refY="0"
       orient="auto">
      <path
         transform="scale(0.4,0.4)"
         style="fill:#000000;fill-opacity:1;fill-rule:evenodd;stroke:#000000;stroke-width:1pt;stroke-opacity:1"
         d="m 5.77,0 -8.65,5 0,-10 8.65,5 z"
         id="path5182-59" />
    </marker>
    <marker
       style="overflow:visible"
       id="marker5180-8-4"
       refX="0"
       refY="0"
       orient="auto">
      <path
         transform="scale(0.4,0.4)"
         style="fill:#000000;fill-opacity:1;fill-rule:evenodd;stroke:#000000;stroke-width:1pt;stroke-opacity:1"
         d="m 5.77,0 -8.65,5 0,-10 8.65,5 z"
         id="path5182-2-0" />
    </marker>
    <marker
       style="overflow:visible"
       id="marker10539"
       refX="0"
       refY="0"
       orient="auto">
      <path
         transform="scale(-0.2,-0.2)"
         style="fill:#000000;fill-opacity:1;fill-rule:evenodd;stroke:#000000;stroke-width:1pt;stroke-opacity:1"
         d="m 5.77,0 -8.65,5 0,-10 8.65,5 z"
         id="path10541" />
    </marker>
    <marker
       style="overflow:visible"
       id="marker5180-8-16-8-1"
       refX="0"
       refY="0"
       orient="auto">
      <path
         transform="scale(0.4,0.4)"
         style="fill:#000000;fill-opacity:1;fill-rule:evenodd;stroke:#000000;stroke-width:1pt;stroke-opacity:1"
         d="m 5.77,0 -8.65,5 0,-10 8.65,5 z"
         id="path5182-2-3-6-7" />
    </marker>
    <marker
       style="overflow:visible"
       id="marker5180-8-16-1"
       refX="0"
       refY="0"
       orient="auto">
      <path
         transform="scale(0.4,0.4)"
         style="fill:#000000;fill-opacity:1;fill-rule:evenodd;stroke:#000000;stroke-width:1pt;stroke-opacity:1"
         d="m 5.77,0 -8.65,5 0,-10 8.65,5 z"
         id="path5182-2-3-51" />
    </marker>
    <marker
       style="overflow:visible"
       id="TriangleOutS-1-72"
       refX="0"
       refY="0"
       orient="auto">
      <path
         transform="scale(0.2,0.2)"
         style="fill:#000000;fill-opacity:1;fill-rule:evenodd;stroke:#000000;stroke-width:1pt;stroke-opacity:1"
         d="m 5.77,0 -8.65,5 0,-10 8.65,5 z"
         id="path4321-4-9" />
    </marker>
    <marker
       style="overflow:visible"
       id="TriangleInS-3-4"
       refX="0"
       refY="0"
       orient="auto">
      <path
         transform="scale(-0.2,-0.2)"
         style="fill:#000000;fill-opacity:1;fill-rule:evenodd;stroke:#000000;stroke-width:1pt;stroke-opacity:1"
         d="m 5.77,0 -8.65,5 0,-10 8.65,5 z"
         id="path4312-3-26" />
    </marker>
    <marker
       style="overflow:visible"
       id="TriangleOutS-1-2"
       refX="0"
       refY="0"
       orient="auto">
      <path
         transform="scale(0.2,0.2)"
         style="fill:#000000;fill-opacity:1;fill-rule:evenodd;stroke:#000000;stroke-width:1pt;stroke-opacity:1"
         d="m 5.77,0 -8.65,5 0,-10 8.65,5 z"
         id="path4321-4-8" />
    </marker>
    <marker
       style="overflow:visible"
       id="TriangleInS-3-1"
       refX="0"
       refY="0"
       orient="auto">
      <path
         transform="scale(-0.2,-0.2)"
         style="fill:#000000;fill-opacity:1;fill-rule:evenodd;stroke:#000000;stroke-width:1pt;stroke-opacity:1"
         d="m 5.77,0 -8.65,5 0,-10 8.65,5 z"
         id="path4312-3-7" />
    </marker>
    <marker
       style="overflow:visible"
       id="TriangleOutS-1-2-2"
       refX="0"
       refY="0"
       orient="auto">
      <path
         transform="scale(0.2,0.2)"
         style="fill:#000000;fill-opacity:1;fill-rule:evenodd;stroke:#000000;stroke-width:1pt;stroke-opacity:1"
         d="m 5.77,0 -8.65,5 0,-10 8.65,5 z"
         id="path4321-4-8-2" />
    </marker>
    <marker
       style="overflow:visible"
       id="TriangleInS-3-1-7"
       refX="0"
       refY="0"
       orient="auto">
      <path
         transform="scale(-0.2,-0.2)"
         style="fill:#000000;fill-opacity:1;fill-rule:evenodd;stroke:#000000;stroke-width:1pt;stroke-opacity:1"
         d="m 5.77,0 -8.65,5 0,-10 8.65,5 z"
         id="path4312-3-7-8" />
    </marker>
    <clipPath
       id="clipPath6278"
       clipPathUnits="userSpaceOnUse">
      <circle
         r="104.33425"
         cy="-1616.2589"
         cx="808.9303"
         id="circle6280"
         style="color:#000000;clip-rule:nonzero;display:inline;overflow:visible;visibility:visible;opacity:1;isolation:auto;mix-blend-mode:normal;color-interpolation:sRGB;color-interpolation-filters:linearRGB;solid-color:#000000;solid-opacity:1;fill:#000000;fill-opacity:0.03921569;fill-rule:nonzero;stroke:#000000;stroke-width:0.92799318;stroke-linecap:butt;stroke-linejoin:miter;stroke-miterlimit:4;stroke-dasharray:none;stroke-dashoffset:0;stroke-opacity:1;color-rendering:auto;image-rendering:auto;shape-rendering:auto;text-rendering:auto;enable-background:accumulate" />
    </clipPath>
    <clipPath
       id="clipPath6295"
       clipPathUnits="userSpaceOnUse">
      <circle
         r="60.055145"
         cy="-1518.6379"
         cx="532"
         id="circle6297"
         style="color:#000000;clip-rule:nonzero;display:inline;overflow:visible;visibility:visible;opacity:1;isolation:auto;mix-blend-mode:normal;color-interpolation:sRGB;color-interpolation-filters:linearRGB;solid-color:#000000;solid-opacity:1;fill:#000000;fill-opacity:0.03921569;fill-rule:nonzero;stroke:#000000;stroke-width:0.8897059;stroke-linecap:butt;stroke-linejoin:miter;stroke-miterlimit:4;stroke-dasharray:none;stroke-dashoffset:0;stroke-opacity:1;color-rendering:auto;image-rendering:auto;shape-rendering:auto;text-rendering:auto;enable-background:accumulate" />
    </clipPath>
    <marker
       style="overflow:visible"
       id="marker10834-1"
       refX="0"
       refY="0"
       orient="auto">
      <path
         transform="scale(-0.2,-0.2)"
         style="fill:#000000;fill-opacity:1;fill-rule:evenodd;stroke:#000000;stroke-width:1pt;stroke-opacity:1"
         d="m 5.77,0 -8.65,5 0,-10 8.65,5 z"
         id="path10836-9" />
    </marker>
    <marker
       style="overflow:visible"
       id="marker10834-1-2"
       refX="0"
       refY="0"
       orient="auto">
      <path
         transform="scale(-0.2,-0.2)"
         style="fill:#000000;fill-opacity:1;fill-rule:evenodd;stroke:#000000;stroke-width:1pt;stroke-opacity:1"
         d="m 5.77,0 -8.65,5 0,-10 8.65,5 z"
         id="path10836-9-5" />
    </marker>
    <marker
       style="overflow:visible"
       id="TriangleOutS-1-7-4"
       refX="0"
       refY="0"
       orient="auto">
      <path
         transform="scale(0.2,0.2)"
         style="fill:#000000;fill-opacity:1;fill-rule:evenodd;stroke:#000000;stroke-width:1pt;stroke-opacity:1"
         d="m 5.77,0 -8.65,5 0,-10 8.65,5 z"
         id="path4321-4-0-7" />
    </marker>
    <marker
       style="overflow:visible"
       id="TriangleOutS-1-2-4"
       refX="0"
       refY="0"
       orient="auto">
      <path
         transform="scale(0.2,0.2)"
         style="fill:#000000;fill-opacity:1;fill-rule:evenodd;stroke:#000000;stroke-width:1pt;stroke-opacity:1"
         d="m 5.77,0 -8.65,5 0,-10 8.65,5 z"
         id="path4321-4-8-3" />
    </marker>
    <marker
       orient="auto"
       refY="0"
       refX="0"
       id="marker6873"
       style="overflow:visible">
      <path
         id="path6875"
         d="m 5.77,0 -8.65,5 0,-10 8.65,5 z"
         style="fill:#000000;fill-opacity:1;fill-rule:evenodd;stroke:#000000;stroke-width:1pt;stroke-opacity:1"
         transform="scale(-0.2,-0.2)" />
    </marker>
    <marker
       style="overflow:visible"
       id="TriangleInS-0-1"
       refX="0"
       refY="0"
       orient="auto">
      <path
         transform="scale(-0.2,-0.2)"
         style="fill:#000000;fill-opacity:1;fill-rule:evenodd;stroke:#000000;stroke-width:1pt;stroke-opacity:1"
         d="m 5.77,0 -8.65,5 0,-10 8.65,5 z"
         id="path4312-2-1" />
    </marker>
    <marker
       style="overflow:visible"
       id="TriangleOutS-7-7"
       refX="0"
       refY="0"
       orient="auto">
      <path
         transform="scale(0.2,0.2)"
         style="fill:#000000;fill-opacity:1;fill-rule:evenodd;stroke:#000000;stroke-width:1pt;stroke-opacity:1"
         d="m 5.77,0 -8.65,5 0,-10 8.65,5 z"
         id="path4321-0-8" />
    </marker>
    <marker
       style="overflow:visible"
       id="marker5180-3-0"
       refX="0"
       refY="0"
       orient="auto">
      <path
         transform="scale(0.4,0.4)"
         style="fill:#000000;fill-opacity:1;fill-rule:evenodd;stroke:#000000;stroke-width:1pt;stroke-opacity:1"
         d="m 5.77,0 -8.65,5 0,-10 8.65,5 z"
         id="path5182-6-9" />
    </marker>
    <marker
       style="overflow:visible"
       id="marker5180-8-8-5"
       refX="0"
       refY="0"
       orient="auto">
      <path
         transform="scale(0.4,0.4)"
         style="fill:#000000;fill-opacity:1;fill-rule:evenodd;stroke:#000000;stroke-width:1pt;stroke-opacity:1"
         d="m 5.77,0 -8.65,5 0,-10 8.65,5 z"
         id="path5182-2-8-4" />
    </marker>
  </defs>
  <metadata
     id="metadata8573">
    <rdf:RDF>
      <cc:Work
         rdf:about="">
        <dc:format>image/svg+xml</dc:format>
        <dc:type
           rdf:resource="http://purl.org/dc/dcmitype/StillImage" />
        <dc:title></dc:title>
      </cc:Work>
    </rdf:RDF>
  </metadata>
  <g
     transform="translate(-912.27254,-519.27312)"
     id="layer1">
    <text
       id="text13391"
       y="660.08295"
       x="1006.0167"
       style="font-style:normal;font-weight:normal;font-size:40px;line-height:125%;font-family:sans-serif;text-align:center;letter-spacing:0px;word-spacing:0px;text-anchor:middle;fill:#000000;fill-opacity:1;stroke:none;stroke-width:1px;stroke-linecap:butt;stroke-linejoin:miter;stroke-opacity:1"
       xml:space="preserve"><tspan
         id="tspan14384"
         style="font-style:normal;font-variant:normal;font-weight:bold;font-stretch:normal;font-size:27.5px;font-family:Lato;-inkscape-font-specification:'Lato Bold';text-align:center;text-anchor:middle"
         y="660.08295"
         x="1006.0167">Predictive</tspan><tspan
         id="tspan14427"
         style="font-style:normal;font-variant:normal;font-weight:bold;font-stretch:normal;font-size:27.5px;font-family:Lato;-inkscape-font-specification:'Lato Bold';text-align:center;text-anchor:middle"
         y="694.45795"
         x="1006.0167">Forecasting</tspan></text>
    <rect
       y="557.54962"
       x="922.71478"
       height="47.689426"
       width="165.68388"
       id="rect4163-7"
       style="fill:#56ff00;fill-opacity:0.30057804;stroke:none;stroke-width:1;stroke-miterlimit:4;stroke-dasharray:1, 4;stroke-dashoffset:0;stroke-opacity:1" />
    <path
       id="path4136-5"
       d="m 927.79612,542.87475 0,77.97128"
       style="fill:none;fill-rule:evenodd;stroke:#000000;stroke-width:0.58171886px;stroke-linecap:butt;stroke-linejoin:miter;stroke-opacity:1;marker-start:url(#TriangleInS-0-1)" />
    <path
       id="path4138-9"
       d="m 922.23381,605.12939 167.93419,0"
       style="fill:none;fill-rule:evenodd;stroke:#000000;stroke-width:0.68830103px;stroke-linecap:butt;stroke-linejoin:miter;stroke-opacity:1;marker-end:url(#TriangleOutS-7-7)" />
    <circle
       r="2.2947831"
       cy="586.43256"
       cx="938.0517"
       id="path4144-3"
       style="fill:#ffffff;fill-opacity:1;stroke:#000000;stroke-width:0.68692446;stroke-miterlimit:4;stroke-dasharray:none;stroke-opacity:1" />
    <circle
       r="2.2947831"
       cy="574.7865"
       cx="959.77948"
       id="path4144-0-3"
       style="fill:#ffffff;fill-opacity:1;stroke:#000000;stroke-width:0.68692446;stroke-miterlimit:4;stroke-dasharray:none;stroke-opacity:1" />
    <circle
       r="2.2947831"
       cy="582.08704"
       cx="980.29047"
       id="path4144-06-6"
       style="fill:#ffffff;fill-opacity:1;stroke:#000000;stroke-width:0.68692446;stroke-miterlimit:4;stroke-dasharray:none;stroke-opacity:1" />
    <circle
       r="2.2947831"
       cy="570.96234"
       cx="1000.1063"
       id="path4144-4-1"
       style="fill:#ffffff;fill-opacity:1;stroke:#000000;stroke-width:0.68692446;stroke-miterlimit:4;stroke-dasharray:none;stroke-opacity:1" />
    <circle
       r="2.2947831"
       cy="591.47339"
       cx="1014.7073"
       id="path4144-5-04"
       style="fill:#ffffff;fill-opacity:1;stroke:#000000;stroke-width:0.68692446;stroke-miterlimit:4;stroke-dasharray:none;stroke-opacity:1" />
    <circle
       r="2.2947831"
       cy="581.39166"
       cx="1030.3512"
       id="path4144-9-6"
       style="fill:#ffffff;fill-opacity:1;stroke:#000000;stroke-width:0.68692446;stroke-miterlimit:4;stroke-dasharray:none;stroke-opacity:1" />
    <path
       id="path4185-3"
       d="m 941.70189,583.82524 13.21051,-7.30052"
       style="fill:none;fill-rule:evenodd;stroke:#000000;stroke-width:0.68830103px;stroke-linecap:butt;stroke-linejoin:miter;stroke-opacity:1" />
    <path
       id="path4187-0"
       d="m 963.95114,575.48178 12.16757,5.21467"
       style="fill:none;fill-rule:evenodd;stroke:#000000;stroke-width:0.68830103px;stroke-linecap:butt;stroke-linejoin:miter;stroke-opacity:1" />
    <path
       id="path4189-25"
       d="m 983.18687,580.65693 13.889,-7.86631"
       style="fill:none;fill-rule:evenodd;stroke:#000000;stroke-width:0.68830103px;stroke-linecap:butt;stroke-linejoin:miter;stroke-opacity:1" />
    <path
       id="path4191-9"
       d="m 1002.361,573.40519 10.2016,14.7493"
       style="fill:none;fill-rule:evenodd;stroke:#000000;stroke-width:0.68830103px;stroke-linecap:butt;stroke-linejoin:miter;stroke-opacity:1" />
    <path
       id="path4193-7"
       d="m 1017.3561,589.62941 9.9557,-6.14555"
       style="fill:none;fill-rule:evenodd;stroke:#000000;stroke-width:0.68830103px;stroke-linecap:butt;stroke-linejoin:miter;stroke-opacity:1" />
    <path
       id="path4199-4"
       d="m 1033.8276,579.30586 13.0367,-6.60523 8.8651,6.60523 8.1695,-7.64817 8.8141,-3.20443 8.7421,4.59499 8.6911,-3.99791"
       style="fill:none;fill-rule:evenodd;stroke:#000000;stroke-width:0.34415051;stroke-linecap:butt;stroke-linejoin:miter;stroke-miterlimit:4;stroke-dasharray:1.03245155, 0.34415052;stroke-dashoffset:0;stroke-opacity:1" />
    <path
       id="path4201-5"
       d="m 1034.1754,580.17496 12.1676,-1.91202 9.5601,7.47432 8.3435,-7.12671 8.4664,-2.00512 8.2205,5.48158 9.3864,-7.12672"
       style="fill:none;fill-rule:evenodd;stroke:#000000;stroke-width:0.34415051;stroke-linecap:butt;stroke-linejoin:miter;stroke-miterlimit:4;stroke-dasharray:1.03245155, 0.34415052;stroke-dashoffset:0;stroke-opacity:1" />
    <path
       id="path4314-4"
       d="m 1051.1037,581.69278 -4.6852,-3.67408 -5.8063,0.91452 c -3.1933,0.503 -5.8314,0.91451 -5.8622,0.91451 -0.031,0 -0.038,-0.16951 -0.017,-0.37669 0.037,-0.366 0.2094,-0.4634 6.0723,-3.43883 l 6.0338,-3.06211 4.4621,3.32529 4.462,3.32527 0.689,-0.66437 c 0.379,-0.3654 2.0165,-1.90027 3.6391,-3.41087 1.6223,-1.51058 3.1733,-2.95838 3.4467,-3.21733 0.4386,-0.41565 0.9913,-0.65085 4.7138,-2.00657 2.3193,-0.84466 4.3022,-1.53576 4.4063,-1.53576 0.1047,0 2.0994,1.0048 4.4337,2.23288 2.3343,1.22809 4.3038,2.23104 4.3765,2.22873 0.072,-0.004 1.5427,-0.65434 3.2665,-1.4491 1.7238,-0.79472 3.4799,-1.60179 3.9025,-1.79344 l 0.7682,-0.3484 0,2.85331 0,2.85333 -4.245,3.22353 -4.245,3.22352 -4.0501,-2.70193 c -2.2276,-1.48609 -4.1076,-2.70196 -4.178,-2.70196 -0.07,0 -2.0206,0.44758 -4.3339,0.99462 l -4.2063,0.99465 -1.1062,0.94043 c -0.6084,0.5172 -2.4479,2.08844 -4.0879,3.49163 -1.6399,1.40314 -3.0227,2.5485 -3.0727,2.54528 -0.049,-0.004 -2.1995,-1.65926 -4.7763,-3.68006 z"
       style="fill:#ffffff;fill-opacity:0.78612713;stroke:none;stroke-width:0.08928572;stroke-miterlimit:4;stroke-dasharray:none;stroke-dashoffset:0;stroke-opacity:1" />
    <path
       id="path4159-4"
       d="m 1033.6711,549.06623 0,74.68154"
       style="fill:none;fill-rule:evenodd;stroke:#000000;stroke-width:0.56131232;stroke-linecap:butt;stroke-linejoin:miter;stroke-miterlimit:4;stroke-dasharray:0.56131239, 2.24524954;stroke-dashoffset:0;stroke-opacity:1" />
    <text
       id="text4165-4"
       y="551.1582"
       x="921.1745"
       style="font-style:normal;font-weight:normal;font-size:8.10090637px;line-height:125%;font-family:sans-serif;letter-spacing:0px;word-spacing:0px;fill:#000000;fill-opacity:1;stroke:none;stroke-width:1px;stroke-linecap:butt;stroke-linejoin:miter;stroke-opacity:1"
       xml:space="preserve"><tspan
         style="font-style:normal;font-variant:normal;font-weight:normal;font-stretch:normal;font-size:6.07568026px;font-family:Lato;-inkscape-font-specification:Lato"
         y="551.1582"
         x="921.1745"
         id="tspan4167-0">£</tspan></text>
  </g>
</svg>
