<?xml version="1.0" encoding="UTF-8" standalone="no"?>
<svg
   xmlns:dc="http://purl.org/dc/elements/1.1/"
   xmlns:cc="http://creativecommons.org/ns#"
   xmlns:rdf="http://www.w3.org/1999/02/22-rdf-syntax-ns#"
   xmlns:svg="http://www.w3.org/2000/svg"
   xmlns="http://www.w3.org/2000/svg"
   width="490.64935"
   height="367.23291"
   viewBox="0 0 490.64935 367.23294"
   id="svg6003"
   version="1.1">
  <defs
     id="defs6005">
    <marker
       style="overflow:visible"
       id="TriangleInS-3-4"
       refX="0"
       refY="0"
       orient="auto">
      <path
         transform="scale(-0.2,-0.2)"
         style="fill:#000000;fill-opacity:1;fill-rule:evenodd;stroke:#000000;stroke-width:1pt;stroke-opacity:1"
         d="m 5.77,0 -8.65,5 0,-10 8.65,5 z"
         id="path4312-3-26" />
    </marker>
    <marker
       style="overflow:visible"
       id="TriangleOutS-1-72"
       refX="0"
       refY="0"
       orient="auto">
      <path
         transform="scale(0.2,0.2)"
         style="fill:#000000;fill-opacity:1;fill-rule:evenodd;stroke:#000000;stroke-width:1pt;stroke-opacity:1"
         d="m 5.77,0 -8.65,5 0,-10 8.65,5 z"
         id="path4321-4-9" />
    </marker>
    <marker
       style="overflow:visible"
       id="marker5180-8-16-1"
       refX="0"
       refY="0"
       orient="auto">
      <path
         transform="scale(0.4,0.4)"
         style="fill:#000000;fill-opacity:1;fill-rule:evenodd;stroke:#000000;stroke-width:1pt;stroke-opacity:1"
         d="m 5.77,0 -8.65,5 0,-10 8.65,5 z"
         id="path5182-2-3-51" />
    </marker>
    <marker
       style="overflow:visible"
       id="marker5180-8-16-8-1"
       refX="0"
       refY="0"
       orient="auto">
      <path
         transform="scale(0.4,0.4)"
         style="fill:#000000;fill-opacity:1;fill-rule:evenodd;stroke:#000000;stroke-width:1pt;stroke-opacity:1"
         d="m 5.77,0 -8.65,5 0,-10 8.65,5 z"
         id="path5182-2-3-6-7" />
    </marker>
    <marker
       style="overflow:visible"
       id="marker10539"
       refX="0"
       refY="0"
       orient="auto">
      <path
         transform="scale(-0.2,-0.2)"
         style="fill:#000000;fill-opacity:1;fill-rule:evenodd;stroke:#000000;stroke-width:1pt;stroke-opacity:1"
         d="m 5.77,0 -8.65,5 0,-10 8.65,5 z"
         id="path10541" />
    </marker>
    <marker
       style="overflow:visible"
       id="marker10834"
       refX="0"
       refY="0"
       orient="auto">
      <path
         transform="scale(-0.2,-0.2)"
         style="fill:#000000;fill-opacity:1;fill-rule:evenodd;stroke:#000000;stroke-width:1pt;stroke-opacity:1"
         d="m 5.77,0 -8.65,5 0,-10 8.65,5 z"
         id="path10836" />
    </marker>
    <marker
       style="overflow:visible"
       id="TriangleOutS-1-2"
       refX="0"
       refY="0"
       orient="auto">
      <path
         transform="scale(0.2,0.2)"
         style="fill:#000000;fill-opacity:1;fill-rule:evenodd;stroke:#000000;stroke-width:1pt;stroke-opacity:1"
         d="m 5.77,0 -8.65,5 0,-10 8.65,5 z"
         id="path4321-4-8" />
    </marker>
    <marker
       style="overflow:visible"
       id="TriangleInS-3-1"
       refX="0"
       refY="0"
       orient="auto">
      <path
         transform="scale(-0.2,-0.2)"
         style="fill:#000000;fill-opacity:1;fill-rule:evenodd;stroke:#000000;stroke-width:1pt;stroke-opacity:1"
         d="m 5.77,0 -8.65,5 0,-10 8.65,5 z"
         id="path4312-3-7" />
    </marker>
    <marker
       style="overflow:visible"
       id="TriangleOutS-1-2-4"
       refX="0"
       refY="0"
       orient="auto">
      <path
         transform="scale(0.2,0.2)"
         style="fill:#000000;fill-opacity:1;fill-rule:evenodd;stroke:#000000;stroke-width:1pt;stroke-opacity:1"
         d="m 5.77,0 -8.65,5 0,-10 8.65,5 z"
         id="path4321-4-8-3" />
    </marker>
    <marker
       orient="auto"
       refY="0"
       refX="0"
       id="marker6873"
       style="overflow:visible">
      <path
         id="path6875"
         d="m 5.77,0 -8.65,5 0,-10 8.65,5 z"
         style="fill:#000000;fill-opacity:1;fill-rule:evenodd;stroke:#000000;stroke-width:1pt;stroke-opacity:1"
         transform="scale(-0.2,-0.2)" />
    </marker>
    <marker
       style="overflow:visible"
       id="TriangleOutS-1-7-4"
       refX="0"
       refY="0"
       orient="auto">
      <path
         transform="scale(0.2,0.2)"
         style="fill:#000000;fill-opacity:1;fill-rule:evenodd;stroke:#000000;stroke-width:1pt;stroke-opacity:1"
         d="m 5.77,0 -8.65,5 0,-10 8.65,5 z"
         id="path4321-4-0-7" />
    </marker>
    <marker
       style="overflow:visible"
       id="marker10834-1-2-1-6"
       refX="0"
       refY="0"
       orient="auto">
      <path
         transform="scale(-0.2,-0.2)"
         style="fill:#000000;fill-opacity:1;fill-rule:evenodd;stroke:#000000;stroke-width:1pt;stroke-opacity:1"
         d="m 5.77,0 -8.65,5 0,-10 8.65,5 z"
         id="path10836-9-5-0-0" />
    </marker>
    <marker
       style="overflow:visible"
       id="marker10834-1-2-1"
       refX="0"
       refY="0"
       orient="auto">
      <path
         transform="scale(-0.2,-0.2)"
         style="fill:#000000;fill-opacity:1;fill-rule:evenodd;stroke:#000000;stroke-width:1pt;stroke-opacity:1"
         d="m 5.77,0 -8.65,5 0,-10 8.65,5 z"
         id="path10836-9-5-0" />
    </marker>
    <marker
       style="overflow:visible"
       id="marker10834-1-2-1-8"
       refX="0"
       refY="0"
       orient="auto">
      <path
         transform="scale(-0.2,-0.2)"
         style="fill:#000000;fill-opacity:1;fill-rule:evenodd;stroke:#000000;stroke-width:1pt;stroke-opacity:1"
         d="m 5.77,0 -8.65,5 0,-10 8.65,5 z"
         id="path10836-9-5-0-5" />
    </marker>
    <marker
       style="overflow:visible"
       id="marker10834-1-2-1-6-8"
       refX="0"
       refY="0"
       orient="auto">
      <path
         transform="scale(-0.2,-0.2)"
         style="fill:#000000;fill-opacity:1;fill-rule:evenodd;stroke:#000000;stroke-width:1pt;stroke-opacity:1"
         d="m 5.77,0 -8.65,5 0,-10 8.65,5 z"
         id="path10836-9-5-0-0-1" />
    </marker>
    <clipPath
       id="clipPath6278"
       clipPathUnits="userSpaceOnUse">
      <circle
         r="104.33425"
         cy="-1616.2589"
         cx="808.9303"
         id="circle6280"
         style="color:#000000;clip-rule:nonzero;display:inline;overflow:visible;visibility:visible;opacity:1;isolation:auto;mix-blend-mode:normal;color-interpolation:sRGB;color-interpolation-filters:linearRGB;solid-color:#000000;solid-opacity:1;fill:#000000;fill-opacity:0.03921569;fill-rule:nonzero;stroke:#000000;stroke-width:0.92799318;stroke-linecap:butt;stroke-linejoin:miter;stroke-miterlimit:4;stroke-dasharray:none;stroke-dashoffset:0;stroke-opacity:1;color-rendering:auto;image-rendering:auto;shape-rendering:auto;text-rendering:auto;enable-background:accumulate" />
    </clipPath>
    <clipPath
       id="clipPath6295"
       clipPathUnits="userSpaceOnUse">
      <circle
         r="60.055145"
         cy="-1518.6379"
         cx="532"
         id="circle6297"
         style="color:#000000;clip-rule:nonzero;display:inline;overflow:visible;visibility:visible;opacity:1;isolation:auto;mix-blend-mode:normal;color-interpolation:sRGB;color-interpolation-filters:linearRGB;solid-color:#000000;solid-opacity:1;fill:#000000;fill-opacity:0.03921569;fill-rule:nonzero;stroke:#000000;stroke-width:0.8897059;stroke-linecap:butt;stroke-linejoin:miter;stroke-miterlimit:4;stroke-dasharray:none;stroke-dashoffset:0;stroke-opacity:1;color-rendering:auto;image-rendering:auto;shape-rendering:auto;text-rendering:auto;enable-background:accumulate" />
    </clipPath>
    <marker
       style="overflow:visible"
       id="marker10834-1"
       refX="0"
       refY="0"
       orient="auto">
      <path
         transform="scale(-0.2,-0.2)"
         style="fill:#000000;fill-opacity:1;fill-rule:evenodd;stroke:#000000;stroke-width:1pt;stroke-opacity:1"
         d="m 5.77,0 -8.65,5 0,-10 8.65,5 z"
         id="path10836-9" />
    </marker>
    <marker
       style="overflow:visible"
       id="marker10834-1-2"
       refX="0"
       refY="0"
       orient="auto">
      <path
         transform="scale(-0.2,-0.2)"
         style="fill:#000000;fill-opacity:1;fill-rule:evenodd;stroke:#000000;stroke-width:1pt;stroke-opacity:1"
         d="m 5.77,0 -8.65,5 0,-10 8.65,5 z"
         id="path10836-9-5" />
    </marker>
  </defs>
  <metadata
     id="metadata6008">
    <rdf:RDF>
      <cc:Work
         rdf:about="">
        <dc:format>image/svg+xml</dc:format>
        <dc:type
           rdf:resource="http://purl.org/dc/dcmitype/StillImage" />
        <dc:title></dc:title>
      </cc:Work>
    </rdf:RDF>
  </metadata>
  <g
     id="g9681"
     transform="translate(-497.82277,703.12268)">
    <rect
       style="fill:#000000;fill-opacity:0.12138726;stroke:none;stroke-width:3;stroke-miterlimit:4;stroke-dasharray:none;stroke-dashoffset:0;stroke-opacity:1"
       id="rect5229-0"
       width="450.64938"
       height="327.23294"
       x="517.82275"
       y="-683.12268"
       ry="24.933832" />
    <rect
       style="fill:#ffffff;fill-opacity:1;stroke:none;stroke-width:3;stroke-miterlimit:4;stroke-dasharray:none;stroke-dashoffset:0;stroke-opacity:1"
       id="rect5229-8-7"
       width="410.52304"
       height="298.09579"
       x="536.34247"
       y="-668.04657"
       ry="14.402359" />
    <rect
       style="fill:#000000;fill-opacity:0.03921569;stroke:none;stroke-width:3;stroke-miterlimit:4;stroke-dasharray:none;stroke-dashoffset:0;stroke-opacity:1"
       id="rect41931-1-4-8"
       width="288.19595"
       height="140.15201"
       x="600.89532"
       y="-589.21393"
       ry="23.505737" />
    <text
       xml:space="preserve"
       style="font-style:normal;font-variant:normal;font-weight:bold;font-stretch:normal;font-size:40px;line-height:125%;font-family:Lato;-inkscape-font-specification:'Lato Bold';text-align:start;letter-spacing:0px;word-spacing:0px;text-anchor:start;fill:#000000;fill-opacity:1;stroke:none;stroke-width:1px;stroke-linecap:butt;stroke-linejoin:miter;stroke-opacity:1"
       x="701"
       y="-542.63788"
       id="text9405"><tspan
         id="tspan9407"
         x="701"
         y="-542.63788"
         style="font-style:normal;font-variant:normal;font-weight:bold;font-stretch:normal;font-size:30px;font-family:Lato;-inkscape-font-specification:'Lato Bold';text-align:start;text-anchor:start">New Payee </tspan><tspan
         x="701"
         y="-505.13788"
         style="font-style:normal;font-variant:normal;font-weight:bold;font-stretch:normal;font-size:30px;font-family:Lato;-inkscape-font-specification:'Lato Bold';text-align:start;text-anchor:start"
         id="tspan5648">Detected</tspan></text>
    <rect
       style="fill:#000000;fill-opacity:0.26589595;stroke:none;stroke-width:3;stroke-miterlimit:4;stroke-dasharray:none;stroke-dashoffset:0;stroke-opacity:1"
       id="rect41931-1-4-8-1"
       width="244.19595"
       height="23.152008"
       x="621.40204"
       y="-481.71387"
       ry="8.7702703" />
    <rect
       style="fill:#ffffff;fill-opacity:0.59537569;stroke:none;stroke-width:3;stroke-miterlimit:4;stroke-dasharray:none;stroke-dashoffset:0;stroke-opacity:1"
       id="rect41931-1-4-8-1-4"
       width="57.010277"
       height="20.323582"
       x="626.39709"
       y="-480.29553"
       ry="7.6988268" />
    <g
       transform="matrix(0.81669337,0,0,0.81669337,357.46146,3899.5652)"
       id="g7720-5-6-4">
      <rect
         ry="6.6350374"
         y="-5460.7666"
         x="315.26746"
         height="44.836029"
         width="81.465034"
         id="rect5229-8-3-2-53-9-3-9"
         style="fill:#54ff00;fill-opacity:0.29803922;stroke:none;stroke-width:3;stroke-miterlimit:4;stroke-dasharray:none;stroke-dashoffset:0;stroke-opacity:1" />
      <path
         d="m 379.8579,-5406.6377 c -6.64437,-0.037 -7.09287,0.063 -12.94046,0.1284 -1.07927,0 -2.0405,-0.1518 -2.88369,-0.4553 -0.80945,-0.3036 -1.50086,-0.7083 -2.07423,-1.2142 -0.57337,-0.5397 -1.01182,-1.1468 -1.31537,-1.8213 -0.30355,-0.6746 -0.45532,-1.3997 -0.45532,-2.1754 l 0,-20.8941 c 0,-0.742 -0.0675,-1.4503 -0.20236,-2.1248 -0.10118,-0.6746 -0.32041,-1.2648 -0.65768,-1.7707 -0.30355,-0.5059 -0.742,-0.8938 -1.31537,-1.1636 -0.53964,-0.3036 -1.23105,-0.4553 -2.07423,-0.4553 -1.65264,0 -2.81623,0.5227 -3.49078,1.5683 -0.64082,1.0455 -0.9781,2.4115 -1.01183,4.0979 l 0,0.9106 4.40143,0 0,5.1603 -4.40143,0 0,19.9329 -6.7792,0 0,-19.9329 -3.49078,0 0,-5.1603 3.49078,0 0,-2.226 c 0,-3.2716 0.9781,-5.7674 2.93429,-7.4875 1.95619,-1.7538 4.67124,-2.6307 8.14515,-2.6307 3.84492,0 6.67802,0.9106 8.4993,2.7319 1.82127,1.8213 2.73191,4.2159 2.73191,7.1839 l 0,18.8705 c 0,0.3373 0.0337,0.6914 0.10119,1.0624 0.10118,0.3373 0.25295,0.6577 0.45532,0.9612 0.20236,0.2698 0.45531,0.5059 0.75886,0.7083 0.30355,0.1686 0.67455,0.253 1.113,0.253 0.30355,0 0,0 1.65319,0.022 0.33727,-0.068 -0.0511,-0.2577 0.21868,-0.3252 l 0.75887,-0.2529 0.30354,-0.1012 z"
         style="font-style:normal;font-variant:normal;font-weight:bold;font-stretch:normal;font-size:medium;line-height:125%;font-family:Raleway;-inkscape-font-specification:'Raleway Bold';letter-spacing:0px;word-spacing:0px;fill:#000000;fill-opacity:1;stroke:none;stroke-width:1px;stroke-linecap:butt;stroke-linejoin:miter;stroke-opacity:1"
         id="path6591-3-6-2" />
      <path
         d="m 382.48187,-5406.5606 c -2.15855,0 -10.45937,0.016 -12.44732,-0.011 -1.87313,-0.026 3.44212,-2.8386 2.22791,-4.0865 -1.18045,-1.2816 -2.09109,-2.7488 -2.73191,-4.4014 -0.64082,-1.6527 -0.96123,-3.3896 -0.96123,-5.2109 0,-1.855 0.32041,-3.6088 0.96123,-5.2615 0.64082,-1.6526 1.55146,-3.1029 2.73191,-4.3508 1.21419,-1.2816 2.68133,-2.2935 4.40142,-3.0355 1.7201,-0.742 3.65942,-1.113 5.81797,-1.113 2.15855,0 4.08101,0.371 5.76738,1.113 1.7201,0.742 3.17038,1.7539 4.35083,3.0355 1.21419,1.2479 2.14169,2.6982 2.78251,4.3508 0.64082,1.6527 0.96123,3.4065 0.96123,5.2615 0,1.8213 -0.32041,3.5582 -0.96123,5.2109 -0.64082,1.6526 -1.55146,3.1198 -2.73192,4.4014 -1.18045,1.2479 -2.63073,2.2429 -4.35083,2.9849 -1.72009,0.742 -3.65942,1.113 -5.81797,1.113 z m -6.93097,-13.7101 c 0,1.1804 0.16864,2.2597 0.50591,3.2378 0.371,0.9444 0.86005,1.7707 1.46714,2.479 0.64082,0.7082 1.38282,1.2647 2.22601,1.6695 0.84318,0.371 1.75382,0.5565 2.73191,0.5565 0.97809,0 1.88873,-0.1855 2.73192,-0.5565 0.84319,-0.4048 1.56833,-0.9613 2.17542,-1.6695 0.64082,-0.7083 1.12987,-1.5515 1.46714,-2.5296 0.371,-0.9781 0.5565,-2.0574 0.5565,-3.2378 0,-1.1468 -0.1855,-2.2092 -0.5565,-3.1873 -0.33727,-0.978 -0.82632,-1.8212 -1.46714,-2.5295 -0.60709,-0.7083 -1.33223,-1.2479 -2.17542,-1.6189 -0.84319,-0.4048 -1.75383,-0.6071 -2.73192,-0.6071 -0.97809,0 -1.88873,0.2023 -2.73191,0.6071 -0.84319,0.4047 -1.58519,0.9612 -2.22601,1.6695 -0.60709,0.7083 -1.09614,1.5514 -1.46714,2.5295 -0.33727,0.9781 -0.50591,2.0405 -0.50591,3.1873 z"
         style="font-style:normal;font-variant:normal;font-weight:bold;font-stretch:normal;font-size:medium;line-height:125%;font-family:Raleway;-inkscape-font-specification:'Raleway Bold';letter-spacing:0px;word-spacing:0px;fill:#000000;fill-opacity:1;stroke:none;stroke-width:1px;stroke-linecap:butt;stroke-linejoin:miter;stroke-opacity:1"
         id="path6593-9-3-2" />
    </g>
  </g>
</svg>
