<?xml version="1.0" encoding="UTF-8" standalone="no"?>
<svg
   xmlns:dc="http://purl.org/dc/elements/1.1/"
   xmlns:cc="http://creativecommons.org/ns#"
   xmlns:rdf="http://www.w3.org/1999/02/22-rdf-syntax-ns#"
   xmlns:svg="http://www.w3.org/2000/svg"
   xmlns="http://www.w3.org/2000/svg"
   version="1.1"
   id="svg8568"
   viewBox="0 0 872.79699 319.32132"
   height="319.32132"
   width="872.797">
  <defs
     id="defs8570">
    <marker
       style="overflow:visible"
       id="TriangleInS-0"
       refX="0"
       refY="0"
       orient="auto">
      <path
         transform="scale(-0.2,-0.2)"
         style="fill:#000000;fill-opacity:1;fill-rule:evenodd;stroke:#000000;stroke-width:1pt;stroke-opacity:1"
         d="m 5.77,0 -8.65,5 0,-10 8.65,5 z"
         id="path4312-2" />
    </marker>
    <marker
       style="overflow:visible"
       id="TriangleOutS-7"
       refX="0"
       refY="0"
       orient="auto">
      <path
         transform="scale(0.2,0.2)"
         style="fill:#000000;fill-opacity:1;fill-rule:evenodd;stroke:#000000;stroke-width:1pt;stroke-opacity:1"
         d="m 5.77,0 -8.65,5 0,-10 8.65,5 z"
         id="path4321-0" />
    </marker>
    <marker
       style="overflow:visible"
       id="marker5180-3"
       refX="0"
       refY="0"
       orient="auto">
      <path
         transform="scale(0.4,0.4)"
         style="fill:#000000;fill-opacity:1;fill-rule:evenodd;stroke:#000000;stroke-width:1pt;stroke-opacity:1"
         d="m 5.77,0 -8.65,5 0,-10 8.65,5 z"
         id="path5182-6" />
    </marker>
    <marker
       style="overflow:visible"
       id="marker5180-8-8"
       refX="0"
       refY="0"
       orient="auto">
      <path
         transform="scale(0.4,0.4)"
         style="fill:#000000;fill-opacity:1;fill-rule:evenodd;stroke:#000000;stroke-width:1pt;stroke-opacity:1"
         d="m 5.77,0 -8.65,5 0,-10 8.65,5 z"
         id="path5182-2-8" />
    </marker>
    <marker
       style="overflow:visible"
       id="TriangleInS-04"
       refX="0"
       refY="0"
       orient="auto">
      <path
         transform="scale(-0.2,-0.2)"
         style="fill:#000000;fill-opacity:1;fill-rule:evenodd;stroke:#000000;stroke-width:1pt;stroke-opacity:1"
         d="m 5.77,0 -8.65,5 0,-10 8.65,5 z"
         id="path4312-9" />
    </marker>
    <marker
       style="overflow:visible"
       id="TriangleOutS-0"
       refX="0"
       refY="0"
       orient="auto">
      <path
         transform="scale(0.2,0.2)"
         style="fill:#000000;fill-opacity:1;fill-rule:evenodd;stroke:#000000;stroke-width:1pt;stroke-opacity:1"
         d="m 5.77,0 -8.65,5 0,-10 8.65,5 z"
         id="path4321-45" />
    </marker>
    <marker
       style="overflow:visible"
       id="marker5180-9"
       refX="0"
       refY="0"
       orient="auto">
      <path
         transform="scale(0.4,0.4)"
         style="fill:#000000;fill-opacity:1;fill-rule:evenodd;stroke:#000000;stroke-width:1pt;stroke-opacity:1"
         d="m 5.77,0 -8.65,5 0,-10 8.65,5 z"
         id="path5182-59" />
    </marker>
    <marker
       style="overflow:visible"
       id="marker5180-8-4"
       refX="0"
       refY="0"
       orient="auto">
      <path
         transform="scale(0.4,0.4)"
         style="fill:#000000;fill-opacity:1;fill-rule:evenodd;stroke:#000000;stroke-width:1pt;stroke-opacity:1"
         d="m 5.77,0 -8.65,5 0,-10 8.65,5 z"
         id="path5182-2-0" />
    </marker>
  </defs>
  <metadata
     id="metadata8573">
    <rdf:RDF>
      <cc:Work
         rdf:about="">
        <dc:format>image/svg+xml</dc:format>
        <dc:type
           rdf:resource="http://purl.org/dc/dcmitype/StillImage" />
        <dc:title></dc:title>
      </cc:Work>
    </rdf:RDF>
  </metadata>
  <g
     transform="translate(-94.089931,-299.68038)"
     id="layer1">
    <rect
       y="338.65024"
       x="119.5349"
       height="184.48074"
       width="816.92792"
       id="rect4163-2"
       style="fill:#56ff00;fill-opacity:0.30057804;stroke:none;stroke-width:1;stroke-miterlimit:4;stroke-dasharray:1, 4;stroke-dashoffset:0;stroke-opacity:1" />
    <path
       id="path4136-3"
       d="m 136.1913,312.4726 0,266.6072"
       style="fill:none;fill-rule:evenodd;stroke:#000000;stroke-width:1.98907161px;stroke-linecap:butt;stroke-linejoin:miter;stroke-opacity:1;marker-start:url(#TriangleInS-04)" />
    <path
       id="path4138-2"
       d="m 117.172,523.3399 825.1281,0"
       style="fill:none;fill-rule:evenodd;stroke:#000000;stroke-width:2.82122684px;stroke-linecap:butt;stroke-linejoin:miter;stroke-opacity:1;marker-end:url(#TriangleOutS-0)" />
    <ellipse
       ry="10.631377"
       rx="11.060006"
       cy="421.40952"
       cx="194.89146"
       id="path4144-6"
       style="fill:#ffffff;fill-opacity:1;stroke:#000000;stroke-width:3.24593472;stroke-miterlimit:4;stroke-dasharray:none;stroke-opacity:1" />
    <path
       id="path4185-68"
       d="M 212.8265,412.4946 277.735,387.5319"
       style="fill:none;fill-rule:evenodd;stroke:#000000;stroke-width:2.82122684px;stroke-linecap:butt;stroke-linejoin:miter;stroke-opacity:1" />
    <path
       id="path4187-4"
       d="M 322.1458,383.9658 381.93,401.7963"
       style="fill:none;fill-rule:evenodd;stroke:#000000;stroke-width:2.82122684px;stroke-linecap:butt;stroke-linejoin:miter;stroke-opacity:1" />
    <path
       id="path4189-27"
       d="m 416.6587,401.6612 62.5849,-24.0689"
       style="fill:none;fill-rule:evenodd;stroke:#000000;stroke-width:2.82122684px;stroke-linecap:butt;stroke-linejoin:miter;stroke-opacity:1" />
    <path
       id="path4191-7"
       d="m 517.23989,376.80073 53.79632,1.9972"
       style="fill:none;fill-rule:evenodd;stroke:#000000;stroke-width:2.82122684px;stroke-linecap:butt;stroke-linejoin:miter;stroke-opacity:1" />
    <path
       id="path4193-4"
       d="m 610.88804,380.39109 66.65898,-3.11333"
       style="fill:none;fill-rule:evenodd;stroke:#000000;stroke-width:2.82122684px;stroke-linecap:butt;stroke-linejoin:miter;stroke-opacity:1" />
    <path
       id="path4199-0"
       d="m 725.32834,373.42122 64.62119,-20.90848 42.95367,23.71265 40.80843,-25.09652 43.57761,-9.82468 42.529,16.82555 43.04466,-12.55259"
       style="fill:none;fill-rule:evenodd;stroke:#000000;stroke-width:1.41061342;stroke-linecap:butt;stroke-linejoin:miter;stroke-miterlimit:4;stroke-dasharray:4.23184028, 1.41061344;stroke-dashoffset:0;stroke-opacity:1" />
    <path
       id="path4201-33"
       d="m 726.95843,376.43642 59.93406,-4.97771 46.29128,26.77237 41.61587,-23.29187 41.76324,-5.76978 39.88877,19.78935 46.73845,-23.15834"
       style="fill:none;fill-rule:evenodd;stroke:#000000;stroke-width:1.41061342;stroke-linecap:butt;stroke-linejoin:miter;stroke-miterlimit:4;stroke-dasharray:4.23184028, 1.41061344;stroke-dashoffset:0;stroke-opacity:1" />
    <path
       id="path4314-5"
       d="m 809.97064,383.79198 -22.68502,-13.1584 -28.60009,2.38254 c -15.73009,1.31044 -28.72366,2.37931 -28.87511,2.37537 -0.15094,-0.004 -0.17493,-0.58436 -0.0524,-1.28981 0.21645,-1.24628 1.06984,-1.55715 30.13167,-10.97694 l 29.90907,-9.69422 21.62037,11.93765 21.62037,11.93754 3.44354,-2.18271 c 1.89403,-1.20045 10.07376,-6.23721 18.17725,-11.19293 8.10348,-4.95562 15.8509,-9.70585 17.21641,-10.55595 2.1918,-1.36455 4.92694,-2.09783 23.33173,-6.25524 11.46688,-2.59017 21.26775,-4.6986 21.77958,-4.68525 0.51173,0.0133 10.22187,3.70332 21.57815,8.19997 11.35628,4.49665 20.94013,8.17704 21.29762,8.17846 0.35766,-0.002 7.63543,-2.03913 16.17316,-4.535 8.53784,-2.49576 17.23522,-5.02958 19.32759,-5.63057 l 3.80416,-1.09254 -0.25423,9.75299 -0.25424,9.75309 -21.13733,10.47495 -21.13714,10.47496 -19.6525,-9.75412 c -10.80897,-5.36489 -19.9351,-9.76159 -20.28048,-9.7706 -0.34528,-0.009 -9.96461,1.27118 -21.37609,2.84485 l -20.74811,2.86131 -5.51705,3.07288 c -3.03456,1.68999 -12.20999,6.82514 -20.38988,11.41144 -8.17999,4.58621 -15.07373,8.32414 -15.31946,8.30673 -0.24553,-0.0174 -10.65489,-5.95317 -23.13174,-13.19046 z"
       style="fill:#ffffff;fill-opacity:0.78612713;stroke:none;stroke-width:0.08928572;stroke-miterlimit:4;stroke-dasharray:none;stroke-dashoffset:0;stroke-opacity:1" />
    <path
       id="path4159-9"
       d="m 720.7082,309.6431 0,255.3586"
       style="fill:none;fill-rule:evenodd;stroke:#000000;stroke-width:2.30072212;stroke-linecap:butt;stroke-linejoin:miter;stroke-miterlimit:4;stroke-dasharray:2.30072236, 9.20288942;stroke-dashoffset:0;stroke-opacity:1" />
    <text
       id="text4165-41"
       y="340.79623"
       x="113.54979"
       style="font-style:normal;font-weight:normal;font-size:27.69943237px;line-height:125%;font-family:sans-serif;letter-spacing:0px;word-spacing:0px;fill:#000000;fill-opacity:1;stroke:none;stroke-width:1px;stroke-linecap:butt;stroke-linejoin:miter;stroke-opacity:1"
       xml:space="preserve"><tspan
         style="font-style:normal;font-variant:normal;font-weight:normal;font-stretch:normal;font-size:20.77457619px;font-family:Lato;-inkscape-font-specification:Lato"
         y="340.79623"
         x="113.54979"
         id="tspan4167-9">£</tspan></text>
    <path
       id="path4903-3"
       d="m 727.2067,337.3057 219.0112,0"
       style="fill:none;fill-rule:evenodd;stroke:#000000;stroke-width:2.53267121;stroke-linecap:butt;stroke-linejoin:miter;stroke-miterlimit:4;stroke-dasharray:none;stroke-opacity:1;marker-end:url(#marker5180-9)" />
    <path
       id="path4903-5-5"
       d="m 709.1757,337.3057 -529.98065,0"
       style="fill:none;fill-rule:evenodd;stroke:#000000;stroke-width:2.97727394;stroke-linecap:butt;stroke-linejoin:miter;stroke-miterlimit:4;stroke-dasharray:none;stroke-opacity:1;marker-end:url(#marker5180-8-4)" />
    <ellipse
       ry="10.631377"
       rx="11.060006"
       cy="380.81821"
       cx="298.27551"
       id="path4144-6-5"
       style="fill:#ffffff;fill-opacity:1;stroke:#000000;stroke-width:3.24593472;stroke-miterlimit:4;stroke-dasharray:none;stroke-opacity:1" />
    <ellipse
       ry="10.631377"
       rx="11.060006"
       cy="403.81821"
       cx="400.27551"
       id="path4144-6-1"
       style="fill:#ffffff;fill-opacity:1;stroke:#000000;stroke-width:3.24593472;stroke-miterlimit:4;stroke-dasharray:none;stroke-opacity:1" />
    <ellipse
       ry="10.631377"
       rx="11.060006"
       cy="372.81821"
       cx="498.27551"
       id="path4144-6-55"
       style="fill:#ffffff;fill-opacity:1;stroke:#000000;stroke-width:3.24593472;stroke-miterlimit:4;stroke-dasharray:none;stroke-opacity:1" />
    <ellipse
       ry="10.631377"
       rx="11.060006"
       cy="380.81821"
       cx="591.27551"
       id="path4144-6-9"
       style="fill:#ffffff;fill-opacity:1;stroke:#000000;stroke-width:3.24593472;stroke-miterlimit:4;stroke-dasharray:none;stroke-opacity:1" />
    <ellipse
       ry="10.631377"
       rx="11.060006"
       cy="378.14456"
       cx="698.37561"
       id="path4144-6-9-5"
       style="fill:#ffffff;fill-opacity:1;stroke:#000000;stroke-width:3.24593472;stroke-miterlimit:4;stroke-dasharray:none;stroke-opacity:1" />
  </g>
</svg>
